<svg width="237" height="193" viewBox="0 0 237 193" fill="none" xmlns="http://www.w3.org/2000/svg">
<path d="M53.4924 119.5C50.671 120.7 19.9885 149.333 5 163.5V176H236V24L227.712 38.5C222.834 45 211.242 61 203.907 73C194.737 88 154.18 107 144.305 101C134.431 95 96.6947 144 87.7015 144C78.7084 144 57.0191 118 53.4924 119.5Z" fill="url(#paint0_linear_496_5563)"/>
<path d="M5 164C19.9885 149.783 50.671 121.047 53.4924 119.842C57.0191 118.337 78.7084 144.43 87.7015 144.43C96.6947 144.43 134.431 95.2545 144.305 101.276C154.18 107.297 194.737 88.2294 203.907 73.1756C211.242 61.1326 222.834 45.0753 227.712 38.552L236 24" stroke="#FF136D" stroke-width="2"/>
<defs>
<linearGradient id="paint0_linear_496_5563" x1="120.5" y1="24" x2="120.5" y2="176" gradientUnits="userSpaceOnUse">
<stop stop-color="#FF136D" stop-opacity="0.2"/>
<stop offset="1" stop-color="#FF136D" stop-opacity="0"/>
</linearGradient>
</defs>
</svg>
