<svg width="67" height="11" viewBox="0 0 67 11" fill="none" xmlns="http://www.w3.org/2000/svg">
<g clip-path="url(#clip0_525_1976)">
<path d="M9.62744 10.0957H16.0551V8.22883H11.57V5.93909H15.2886V4.07064H11.57V1.96258H16.0821V0.0957031H9.62744V10.0957Z" fill="white"/>
<path d="M23.7939 6.39014L19.5832 0.0957031H16.6836L17.5866 1.36117V10.127H19.5277V3.56007L23.8763 10.0957H25.7364V0.0957031H23.7939V6.39014Z" fill="white"/>
<path d="M6.70071 4.95083C7.55394 4.77072 8.26497 3.8968 8.26497 2.66266C8.25928 1.32985 7.38472 0.0957031 5.63417 0.0957031H0L0.874562 1.32985V10.1004H5.83041C7.58238 10.1004 8.48396 8.89602 8.48396 7.38936C8.45126 6.15052 7.67908 5.09649 6.70071 4.95083ZM2.81709 1.97511H5.25164C5.90863 1.97511 6.31818 2.39797 6.31818 3.02914C6.31818 3.66031 5.90863 4.08317 5.25164 4.08317H2.81709V1.97511ZM5.3327 8.23979H2.81709V5.93909H5.3327C6.07216 5.93909 6.48172 6.45122 6.48172 7.08396C6.48172 7.80596 6.04372 8.22883 5.3327 8.22883V8.23979Z" fill="white"/>
<path d="M54.1534 6.39014H55.1659V7.56634C54.6422 8.04386 53.9857 8.3092 53.3059 8.3181C51.6918 8.3181 50.5443 6.96336 50.5443 5.12624C50.5443 3.28913 51.6918 1.93282 53.3059 1.93282C53.7207 1.9366 54.128 2.05432 54.4911 2.27529C54.8541 2.49626 55.1613 2.81351 55.3849 3.19829L56.9165 2.25858C56.2609 1.11998 55.1105 0.0957031 53.2789 0.0957031C50.7078 0.0957031 48.5747 2.05342 48.5747 5.09649C48.5747 8.13956 50.6808 10.0957 53.2789 10.0957C53.9805 10.1085 54.6763 9.95358 55.3183 9.64156C55.9603 9.32953 56.5332 8.86784 56.9975 8.28834V4.58435H52.8409L54.1534 6.39014Z" fill="white"/>
<path d="M45.4017 6.39014L41.1896 0.0957031H38.29L39.193 1.36117V10.127H41.1356V3.56007L45.4842 10.0957H47.3428V0.0957031H45.4017V6.39014Z" fill="white"/>
<path d="M63.4233 0.0957031H59.6776L60.5792 1.36117L60.4157 1.84198L57.5161 10.127H59.7047L60.2735 8.43869H64.1912L64.76 10.127H66.9472L63.4233 0.0957031ZM60.7726 6.54206L62.1947 2.23353L63.6167 6.54206H60.7726Z" fill="white"/>
<path d="M37.1696 0.0957031H35.2271V10.127H37.1696V0.0957031Z" fill="white"/>
<path d="M33.6687 1.81223V0.0957031H26.8301V1.96258H31.1247L26.8301 8.37918V10.0957H33.7512V8.22883H29.3471L33.6687 1.81223Z" fill="white"/>
</g>
<defs>
<clipPath id="clip0_525_1976">
<rect width="67" height="10" fill="white" transform="translate(0 0.0957031)"/>
</clipPath>
</defs>
</svg>
