<svg width="83" height="15" viewBox="0 0 83 15" fill="none" xmlns="http://www.w3.org/2000/svg">
<path d="M12.6351 8.4845C12.3876 8.63577 12.0988 8.66327 11.8788 8.53951C11.6037 8.37449 11.4387 8.00321 11.4387 7.49441V5.94053C11.4387 5.19796 11.15 4.66166 10.6549 4.52415C9.81608 4.27663 9.18353 5.30797 8.94976 5.693L7.46462 8.07197V5.14296C7.45087 4.46915 7.23085 4.07036 6.81832 3.9466C6.54329 3.86409 6.13075 3.90535 5.73197 4.5104L2.41793 9.81837C1.97789 8.97955 1.74412 8.04446 1.74412 7.09563C1.74412 3.8916 4.31559 1.29261 7.46462 1.29261C10.6137 1.29261 13.1851 3.8916 13.1851 7.09563V7.10938V7.12313C13.2126 7.74194 13.0201 8.23698 12.6351 8.4845ZM14.4502 7.09563V7.08188V7.06813C14.4365 3.17653 11.3012 0 7.46462 0C3.61428 0 0.479004 3.17653 0.479004 7.09563C0.479004 11.001 3.61428 14.1913 7.46462 14.1913C9.23853 14.1913 10.9162 13.5174 12.2088 12.2936C12.4701 12.0461 12.4838 11.6473 12.2363 11.386C12.0025 11.1247 11.6037 11.111 11.3425 11.3448C11.3425 11.3448 11.3425 11.3448 11.3287 11.3585C10.2836 12.3486 8.881 12.9124 7.43712 12.9124C5.74572 12.9124 4.23309 12.1698 3.18799 10.9872L6.17201 6.2018V8.41575C6.17201 9.47459 6.58455 9.81837 6.92833 9.91463C7.27211 10.0109 7.79465 9.94213 8.35845 9.0483L9.99485 6.39432C10.0499 6.31181 10.0911 6.2293 10.1461 6.1743V7.52192C10.1461 8.51201 10.5449 9.30958 11.2325 9.69461C11.8513 10.0521 12.6351 10.0109 13.2814 9.6121C14.079 9.08955 14.5052 8.18198 14.4502 7.09563ZM24.1861 4.67541C24.3511 4.77167 24.5024 5.00544 24.5024 5.21171C24.5024 5.54174 24.2274 5.81677 23.9111 5.81677C23.8286 5.81677 23.7598 5.78926 23.6911 5.77551C23.3198 5.50049 22.8522 5.32172 22.3572 5.32172C21.1883 5.32172 20.3908 6.27056 20.3908 7.45316C20.3908 8.63577 21.2021 9.57085 22.3572 9.57085C22.9347 9.57085 23.4573 9.33708 23.8423 8.9658C23.9386 8.89704 24.0623 8.85578 24.1861 8.85578C24.5024 8.85578 24.7499 9.10331 24.7499 9.41959C24.7499 9.62585 24.6261 9.80462 24.4749 9.90088C23.9111 10.3822 23.1548 10.6985 22.3709 10.6985C20.5833 10.6985 19.1257 9.22707 19.1257 7.41191C19.1257 5.59675 20.5833 4.12537 22.3709 4.12537C23.031 4.11161 23.6636 4.31788 24.1861 4.67541ZM27.4589 6.05054C28.6828 6.05054 29.7003 7.08188 29.7003 8.36074C29.7003 9.62586 28.669 10.7122 27.4589 10.7122C26.18 10.7122 25.1212 9.63961 25.1212 8.36074C25.1212 7.08188 26.18 6.05054 27.4589 6.05054ZM27.4451 9.57085C27.9814 9.57085 28.4352 9.06205 28.4352 8.37449C28.4352 7.68693 27.9814 7.24689 27.4451 7.24689C26.8676 7.24689 26.3863 7.67318 26.3863 8.37449C26.3863 9.0483 26.8676 9.57085 27.4451 9.57085ZM30.4704 9.99714V6.75185C30.4704 6.39432 30.7454 6.10554 31.103 6.10554C31.4467 6.10554 31.7355 6.39432 31.7355 6.75185V9.99714C31.7355 10.3547 31.4467 10.6434 31.103 10.6434C30.7592 10.6434 30.4704 10.3409 30.4704 9.99714ZM30.3742 4.88168C30.3742 4.4554 30.7042 4.12537 31.103 4.12537C31.5155 4.12537 31.8455 4.46915 31.8455 4.88168C31.8455 5.29422 31.5155 5.62425 31.103 5.62425C30.6904 5.6105 30.3742 5.28047 30.3742 4.88168ZM34.1557 8.23698V9.99714C34.1557 10.3547 33.867 10.6434 33.5232 10.6434C33.1794 10.6434 32.8906 10.3547 32.8906 9.99714V6.60058C32.8906 6.32556 33.1106 6.10554 33.3857 6.10554C33.6607 6.10554 33.867 6.33931 33.867 6.60058C34.3758 6.11929 34.8296 6.05054 35.2558 6.05054C36.521 6.05054 37.0847 6.99937 37.0847 8.08572V9.99714C37.0847 10.3547 36.796 10.6434 36.4522 10.6434C36.1084 10.6434 35.8196 10.3547 35.8196 9.99714V8.23698C35.8196 7.68693 35.7509 7.21939 34.9533 7.21939C34.3895 7.21939 34.1557 7.68693 34.1557 8.23698ZM41.1826 8.91079C41.0313 8.91079 40.9351 8.84203 40.8526 8.74578L39.3812 7.15063V9.99714C39.3812 10.3547 39.0924 10.6434 38.7486 10.6434C38.4049 10.6434 38.1161 10.3547 38.1161 9.99714V4.35914C38.1573 4.26288 38.2536 4.19412 38.3499 4.19412C38.4599 4.19412 38.5561 4.29038 38.6249 4.35914L40.9763 6.99937C41.0451 7.08188 41.1276 7.12313 41.1826 7.12313C41.2239 7.12313 41.3201 7.08188 41.3889 6.99937L43.7403 4.35914C43.8091 4.29038 43.8916 4.19412 44.0154 4.19412C44.1254 4.19412 44.2216 4.26288 44.2491 4.35914V9.99714C44.2491 10.3547 43.9741 10.6434 43.6166 10.6434C43.2728 10.6434 42.984 10.3547 42.984 9.99714V7.15063L41.5126 8.74578C41.4026 8.84203 41.3064 8.91079 41.1826 8.91079ZM47.2607 9.57085C47.8244 9.57085 48.3057 9.06205 48.3057 8.37449C48.3057 7.68693 47.8107 7.23314 47.2607 7.23314C46.7106 7.23314 46.2568 7.70068 46.2568 8.37449C46.2568 9.03455 46.6968 9.57085 47.2607 9.57085ZM48.6083 10.1484L48.5808 9.99714C48.3332 10.4784 47.5494 10.6985 47.0544 10.6985C45.8718 10.6985 44.9917 9.62586 44.9917 8.34699C44.9917 7.08188 45.8855 6.03678 47.1231 6.03678C47.3294 6.03678 48.0445 6.09179 48.5945 6.7381L48.622 6.58683C48.622 6.31181 48.8283 6.09179 49.1033 6.09179C49.3783 6.09179 49.5984 6.32556 49.5984 6.58683V10.1347C49.5984 10.4097 49.3783 10.6297 49.1033 10.6297C48.8145 10.6434 48.6083 10.4097 48.6083 10.1484ZM53.0774 7.21939H52.9399C52.1423 7.26064 51.9911 7.71443 51.9911 8.23698V9.99714C51.9911 10.3547 51.7023 10.6434 51.3585 10.6434C51.0147 10.6434 50.726 10.3547 50.726 9.99714V6.60058C50.726 6.32556 50.946 6.10554 51.221 6.10554C51.496 6.10554 51.7023 6.33931 51.7023 6.60058C52.1698 6.16055 52.5549 6.06429 52.9399 6.05054H53.0637C53.3662 6.05054 53.6412 6.31181 53.6412 6.64184C53.655 6.94437 53.3799 7.21939 53.0774 7.21939ZM57.9591 9.69461C58.0141 9.79087 58.0554 9.88713 58.0554 9.99714C58.0554 10.3272 57.7528 10.6297 57.4228 10.6297C57.2028 10.6297 57.0103 10.4647 56.859 10.2722L55.4014 8.58076V9.98339C55.4014 10.3409 55.1126 10.6297 54.7688 10.6297C54.425 10.6297 54.1363 10.3409 54.1363 9.98339V4.82668C54.1363 4.46915 54.4113 4.18037 54.7688 4.18037C55.1263 4.18037 55.4014 4.46915 55.4014 4.82668V8.04446L56.859 6.43557C57.0103 6.27056 57.189 6.09179 57.409 6.09179C57.7253 6.09179 58.0141 6.38057 58.0141 6.7106C58.0141 6.80686 57.9866 6.91686 57.9316 6.99937L56.7765 8.26448L57.9591 9.69461ZM60.4343 7.23314C60.0905 7.23314 59.5267 7.41191 59.5267 7.94821H61.3556C61.3419 7.41191 60.7643 7.23314 60.4343 7.23314ZM62.0845 8.75953H59.5267C59.5267 9.51585 60.2556 9.63961 60.5718 9.63961C60.8056 9.63961 61.1356 9.59835 61.3969 9.47459C61.4794 9.41958 61.6032 9.37833 61.7269 9.37833C62.002 9.37833 62.2357 9.6121 62.2357 9.90088C62.2357 10.0934 62.112 10.2584 61.9607 10.3547C61.5757 10.6434 61.0669 10.7122 60.5856 10.7122C59.3067 10.7122 58.2479 10.0246 58.2479 8.41575C58.2479 7.15064 58.8942 6.05054 60.4068 6.05054C61.6307 6.05054 62.552 6.84811 62.5795 8.26448C62.5795 8.52576 62.3595 8.75953 62.0845 8.75953ZM65.6048 10.6985H65.261C64.2984 10.6985 63.7346 10.2722 63.7346 8.77328V7.21939H63.4046C63.1021 7.21939 62.8408 6.94437 62.8408 6.64184C62.8408 6.31181 63.1158 6.05054 63.4046 6.05054H63.7346V4.85418C63.7346 4.49665 64.0096 4.20787 64.3672 4.20787C64.7109 4.20787 64.9997 4.49665 64.9997 4.85418V6.05054H65.5223C65.8248 6.05054 66.0861 6.31181 66.0861 6.64184C66.0861 6.94437 65.811 7.21939 65.5223 7.21939H64.9997V8.52576C64.9997 9.39208 65.041 9.57085 65.426 9.57085H65.6048C65.9073 9.57085 66.1686 9.81837 66.1686 10.1347C66.1686 10.4372 65.9073 10.6985 65.6048 10.6985ZM71.7241 4.67541C71.8891 4.77167 72.0403 5.00544 72.0403 5.21171C72.0403 5.54174 71.7653 5.81677 71.449 5.81677C71.3665 5.81677 71.2978 5.78926 71.229 5.77551C70.8577 5.50049 70.3902 5.32172 69.8952 5.32172C68.7263 5.32172 67.9287 6.27056 67.9287 7.45316C67.9287 8.63577 68.7401 9.57085 69.8952 9.57085C70.4727 9.57085 70.9953 9.33708 71.3803 8.9658C71.4765 8.89704 71.6003 8.85578 71.7241 8.85578C72.0403 8.85578 72.2879 9.10331 72.2879 9.41959C72.2879 9.62585 72.1641 9.80462 72.0128 9.90088C71.4491 10.3822 70.6927 10.6985 69.9089 10.6985C68.1212 10.6985 66.6636 9.22707 66.6636 7.41191C66.6636 5.59675 68.1212 4.12537 69.9089 4.12537C70.569 4.11161 71.2153 4.31788 71.7241 4.67541ZM74.9281 9.57085C75.4919 9.57085 75.9732 9.06205 75.9732 8.37449C75.9732 7.68693 75.4781 7.23314 74.9281 7.23314C74.3643 7.23314 73.9243 7.70068 73.9243 8.37449C73.9243 9.03455 74.3781 9.57085 74.9281 9.57085ZM76.2757 10.1484L76.2482 9.99714C76.0007 10.4784 75.2169 10.6985 74.7218 10.6985C73.5392 10.6985 72.6591 9.62586 72.6591 8.34699C72.6591 7.08188 73.553 6.03678 74.7906 6.03678C74.9969 6.03678 75.7119 6.09179 76.262 6.7381L76.2895 6.58683C76.2895 6.31181 76.4957 6.09179 76.7708 6.09179C77.0458 6.09179 77.2658 6.32556 77.2658 6.58683V10.1347C77.2658 10.4097 77.0458 10.6297 76.7708 10.6297C76.482 10.6434 76.2757 10.4097 76.2757 10.1484ZM80.7174 9.57085C81.2812 9.57085 81.7212 9.03455 81.7212 8.37449C81.7212 7.68693 81.2674 7.23314 80.7174 7.23314C80.1536 7.23314 79.6723 7.68693 79.6723 8.37449C79.6723 9.06205 80.1536 9.57085 80.7174 9.57085ZM79.6723 10.3272V11.9361C79.6723 12.2936 79.3835 12.5824 79.0397 12.5824C78.6959 12.5824 78.4072 12.2936 78.4072 11.9361V6.60058C78.4072 6.32556 78.6272 6.10554 78.9022 6.10554C79.1772 6.10554 79.3835 6.33931 79.3835 6.65559C79.851 6.1743 80.4286 6.05054 80.8686 6.05054C82.0925 6.05054 83.0001 7.08188 83.0001 8.36074C83.0001 9.62586 82.1337 10.7122 80.9374 10.7122C80.5661 10.6984 80.0161 10.5884 79.6723 10.3272Z" fill="white"/>
</svg>
