<svg width="25" height="24" viewBox="0 0 25 24" fill="none" xmlns="http://www.w3.org/2000/svg">
<path fill-rule="evenodd" clip-rule="evenodd" d="M12.6001 0C5.97268 0 0.600098 5.37258 0.600098 12C0.600098 18.6274 5.97268 24 12.6001 24C19.2275 24 24.6001 18.6274 24.6001 12C24.6001 5.37258 19.2275 0 12.6001 0ZM8.05267 5.2H17.5475C18.3482 5.2 19.0001 5.844 19.0001 6.642V19.2L17.4767 17.87L16.6193 17.086L15.7123 16.253L16.0879 17.548H8.05267C7.25198 17.548 6.6001 16.904 6.6001 16.106V6.642C6.6001 5.844 7.25198 5.2 8.05267 5.2Z" fill="white" fill-opacity="0.3"/>
<path fill-rule="evenodd" clip-rule="evenodd" d="M14.8125 14.342C14.8125 14.342 14.5574 14.041 14.3448 13.775C15.273 13.516 15.6273 12.942 15.6273 12.942C15.3368 13.131 15.0605 13.264 14.8125 13.355C14.4582 13.502 14.1181 13.6 13.785 13.656C13.1048 13.782 12.4813 13.747 11.9498 13.649C11.546 13.572 11.1988 13.46 10.9082 13.348C10.7453 13.285 10.5681 13.208 10.391 13.11C10.3804 13.103 10.3697 13.0977 10.3591 13.0925C10.3485 13.0872 10.3378 13.082 10.3272 13.075C10.313 13.068 10.306 13.061 10.2989 13.054C10.1713 12.984 10.1005 12.935 10.1005 12.935C10.1005 12.935 10.4406 13.495 11.3405 13.761C11.1279 14.027 10.8657 14.342 10.8657 14.342C9.29979 14.293 8.70459 13.278 8.70459 13.278C8.70459 11.024 9.72493 9.19697 9.72493 9.19697C10.7453 8.44097 11.716 8.46197 11.716 8.46197L11.7869 8.54597C10.5114 8.90997 9.92333 9.46297 9.92333 9.46297C9.92333 9.46297 10.0792 9.37897 10.3414 9.25997C11.0996 8.93097 11.7018 8.83997 11.9498 8.81897L11.9657 8.81632C12.0015 8.81031 12.0332 8.80497 12.0703 8.80497C12.5025 8.74897 12.9914 8.73497 13.5016 8.79097C14.1748 8.86797 14.8975 9.06397 15.6344 9.46297C15.6344 9.46297 15.0746 8.93797 13.8701 8.57397L13.9693 8.46197C13.9693 8.46197 14.94 8.44097 15.9604 9.19697C15.9604 9.19697 16.9807 11.024 16.9807 13.278C16.9807 13.278 16.3784 14.293 14.8125 14.342ZM11.7172 11.2C11.3165 11.2 11.0001 11.5603 11.0001 12C11.0001 12.4396 11.3235 12.8 11.7172 12.8C12.1179 12.8 12.4342 12.4396 12.4342 12C12.4413 11.5603 12.1179 11.2 11.7172 11.2ZM13.566 12C13.566 11.5603 13.8824 11.2 14.2831 11.2C14.6838 11.2 15.0001 11.5603 15.0001 12C15.0001 12.4396 14.6838 12.8 14.2831 12.8C13.8894 12.8 13.566 12.4396 13.566 12Z" fill="white" fill-opacity="0.3"/>
</svg>
