<svg width="214" height="120" viewBox="0 0 214 120" fill="none" xmlns="http://www.w3.org/2000/svg">
<path d="M117.517 72.6561V47.3394H128.811C134.208 47.3394 137.214 50.9869 137.214 55.2749C137.214 59.5629 134.169 63.2061 128.811 63.2061H122.025V72.6561H117.517ZM128.191 51.2508H122.038V59.2946H128.191C130.736 59.2946 132.586 57.7023 132.586 55.2749C132.586 52.8475 130.753 51.2508 128.191 51.2508Z" fill="white"/>
<path d="M152.943 46.9241C160.638 46.9241 166.089 52.4668 166.089 60C166.089 67.5332 160.638 73.1149 152.943 73.1149C145.247 73.1149 139.798 67.5721 139.798 60.0216C139.798 52.4712 145.23 46.9241 152.943 46.9241ZM152.943 50.8703C147.735 50.8703 144.421 54.7645 144.421 60.0174C144.421 65.2703 147.735 69.1645 152.943 69.1645C158.151 69.1645 161.46 65.2183 161.46 60.0174C161.46 54.8163 158.107 50.8703 152.943 50.8703Z" fill="white"/>
<path d="M170.444 72.6561V47.3394H174.952V68.7446H186.287V72.6389L170.444 72.6561Z" fill="white"/>
<path d="M201.203 46.9241C208.911 46.9241 214.348 52.4668 214.348 60.0174C214.348 67.5678 208.911 73.1149 201.203 73.1149C193.495 73.1149 188.058 67.5721 188.058 60.0216C188.058 52.4712 193.499 46.9241 201.203 46.9241ZM201.203 50.8703C196 50.8703 192.686 54.7645 192.686 60.0174C192.686 65.2703 196 69.1645 201.203 69.1645C206.406 69.1645 209.725 65.2183 209.725 60.0174C209.725 54.8163 206.367 50.8703 201.203 50.8703Z" fill="white"/>
<path d="M90.8658 44.8559V60.0001L77.545 52.428L64.2241 44.8559L77.545 37.2838L90.8658 29.7117V44.8559Z" fill="#153A2A"/>
<path d="M64.2237 59.9999V75.1441L50.9029 67.572L37.582 59.9999L50.9029 52.4278L64.2237 44.8557V59.9999Z" fill="#005C30"/>
<path d="M37.582 44.8559V29.7117L50.9029 37.2838L64.2237 44.8559L50.9029 52.428L37.582 60.0001V44.8559Z" fill="#3AB06A"/>
<path d="M37.582 75.1442V60L50.9029 67.5721L64.2237 75.1442L50.9029 82.7163L37.582 90.2884V75.1442Z" fill="#153A2A"/>
<path d="M77.545 52.4278L64.2241 44.8557V75.1441L77.545 82.7162L90.8658 90.2884V59.9999L77.545 52.4278Z" fill="#3AB06A"/>
</svg>
