<svg width="185" height="62" viewBox="0 0 185 62" fill="none" xmlns="http://www.w3.org/2000/svg">
<path fill-rule="evenodd" clip-rule="evenodd" d="M182.772 47.421C183.032 47.421 183.032 47.421 183.032 47.1604V46.9C183.032 46.6394 183.032 46.6394 182.772 46.6394H182.25V47.421H182.772ZM182.25 47.6816V48.4632H181.728V46.1183H182.772C183.293 46.1183 183.554 46.3788 183.554 46.9C183.554 47.421 183.293 47.421 183.032 47.6816L183.554 48.4632H183.032L182.511 47.6816H182.25ZM182.511 49.2447C183.554 49.2447 184.597 48.4631 184.597 47.421V47.1604C184.597 46.1183 183.814 45.5972 182.772 45.3367C181.728 45.3367 180.686 46.1183 180.686 47.1604V47.421C180.686 48.4631 181.468 49.2447 182.511 49.2447ZM91.797 35.4365H91.5355C88.6684 36.2181 85.8013 36.2181 83.1945 35.4365H82.9341L87.1041 21.6283C87.1041 21.3678 87.6259 21.3678 87.8863 21.6283L91.797 35.4365ZM82.152 15.3755L70.4209 49.7658H78.2413L80.8481 41.4287H81.1095C85.0191 42.7315 89.1902 42.7315 93.0998 41.4287H93.3602L95.967 49.7658H103.787L92.3177 15.3755C91.5356 13.2913 89.4506 11.7281 87.1041 11.7281C84.7588 11.7281 82.9341 13.0307 82.152 15.3755ZM163.742 21.1072H155.401L147.059 32.3101V11.7281H140.021V49.7658H147.059V35.9576L156.704 49.7658H164.524L154.097 34.9155C153.837 34.3943 153.837 33.6127 154.097 33.0917C154.358 33.3523 163.742 21.1072 163.742 21.1072ZM126.466 21.1072H114.997C111.347 21.1072 108.741 23.9731 108.741 27.36V49.5052H115.779V29.1838C115.779 28.4022 116.561 27.6206 117.343 27.6206H124.642C125.424 27.6206 126.206 28.4022 126.206 29.1838V49.7658H133.244V27.6206C133.244 23.9731 130.376 21.3678 126.987 21.3678L126.466 21.1072ZM184.857 21.1072H175.212C171.563 21.1072 168.956 23.9731 168.956 27.36V49.5052H175.994V29.1838C175.994 28.4022 176.776 27.6206 177.558 27.6206H184.857V21.1072ZM32.8845 1.30682L52.9566 11.4675C55.8238 13.0307 57.6484 15.8966 57.6484 19.2836V23.9731H50.3498V19.2836C50.3498 18.7624 50.0884 18.2414 49.5677 18.2414L29.4955 8.0806C29.2352 7.82014 28.7134 7.82014 28.1923 8.0806L8.12043 18.2414C7.59908 18.502 7.3384 19.023 7.3384 19.2836V23.9731H0.300293V19.2836C0.300293 16.1571 2.12494 13.0307 4.9924 11.4675L25.0642 1.30682C27.4103 0.00417327 30.2777 0.00417327 32.8845 1.30682ZM35.2309 30.4864C35.2309 27.0995 32.3627 24.2337 28.9748 24.2337C25.5856 24.2337 22.7181 27.0995 22.7181 30.4864C22.7181 33.8733 25.5856 36.7392 28.9748 36.7392C32.3627 36.7392 35.2309 34.1339 35.2309 30.4864ZM49.5677 43.513C50.0884 43.2525 50.3498 42.7314 50.3498 42.4709V37.7812H57.6484V42.4709C57.6484 45.5972 55.8238 48.7236 52.9566 50.2868L32.8845 60.4476C31.5805 60.9687 30.2777 61.4897 28.9748 61.4897C27.671 61.4897 26.3676 61.2292 25.0642 60.4476L4.9924 50.2868C2.12494 48.7236 0.300293 45.8578 0.300293 42.4709V37.7812H7.59908V42.4709C7.59908 42.9919 7.85976 43.513 8.38111 43.513L25.3249 52.1105V43.513C19.5901 41.9499 15.4193 36.7392 15.4193 30.4864C15.4193 22.9309 21.6755 16.9387 28.9748 16.9387C36.2734 16.9387 42.5295 23.1915 42.5295 30.4864C42.5295 36.7392 38.3584 41.9499 32.6241 43.513V52.1105L49.5677 43.513Z" fill="white"/>
</svg>
