<svg width="344" height="120" viewBox="0 0 344 120" fill="none" xmlns="http://www.w3.org/2000/svg">
<path fill-rule="evenodd" clip-rule="evenodd" d="M261.772 76.421C262.032 76.421 262.032 76.421 262.032 76.1604V75.9C262.032 75.6394 262.032 75.6394 261.772 75.6394H261.25V76.421H261.772ZM261.25 76.6816V77.4632H260.728V75.1183H261.772C262.293 75.1183 262.554 75.3788 262.554 75.9C262.554 76.421 262.293 76.421 262.032 76.6816L262.554 77.4632H262.032L261.511 76.6816H261.25ZM261.511 78.2447C262.554 78.2447 263.597 77.4631 263.597 76.421V76.1604C263.597 75.1184 262.814 74.5972 261.772 74.3367C260.728 74.3367 259.686 75.1184 259.686 76.1604V76.421C259.686 77.4631 260.468 78.2447 261.511 78.2447ZM170.797 64.4365H170.536C167.668 65.2181 164.801 65.2181 162.194 64.4365H161.934L166.104 50.6283C166.104 50.3678 166.626 50.3678 166.886 50.6283L170.797 64.4365ZM161.152 44.3755L149.421 78.7658H157.241L159.848 70.4287H160.109C164.019 71.7315 168.19 71.7315 172.1 70.4287H172.36L174.967 78.7658H182.787L171.318 44.3755C170.536 42.2913 168.451 40.7281 166.104 40.7281C163.759 40.7281 161.934 42.0307 161.152 44.3755ZM242.742 50.1072H234.401L226.059 61.3101V40.7281H219.021V78.7658H226.059V64.9576L235.704 78.7658H243.524L233.097 63.9155C232.837 63.3943 232.837 62.6127 233.097 62.0917C233.358 62.3523 242.742 50.1072 242.742 50.1072ZM205.466 50.1072H193.997C190.347 50.1072 187.741 52.9731 187.741 56.36V78.5052H194.779V58.1838C194.779 57.4022 195.561 56.6206 196.343 56.6206H203.642C204.424 56.6206 205.206 57.4022 205.206 58.1838V78.7658H212.244V56.6206C212.244 52.9731 209.376 50.3678 205.987 50.3678L205.466 50.1072ZM263.857 50.1072H254.212C250.563 50.1072 247.956 52.9731 247.956 56.36V78.5052H254.994V58.1838C254.994 57.4022 255.776 56.6206 256.558 56.6206H263.857V50.1072ZM111.884 30.3068L131.957 40.4675C134.824 42.0307 136.648 44.8966 136.648 48.2836V52.9731H129.35V48.2836C129.35 47.7624 129.088 47.2414 128.568 47.2414L108.496 37.0806C108.235 36.8201 107.713 36.8201 107.192 37.0806L87.1204 47.2414C86.5991 47.502 86.3384 48.023 86.3384 48.2836V52.9731H79.3003V48.2836C79.3003 45.1571 81.1249 42.0307 83.9924 40.4675L104.064 30.3068C106.41 29.0042 109.278 29.0042 111.884 30.3068ZM114.231 59.4864C114.231 56.0995 111.363 53.2337 107.975 53.2337C104.586 53.2337 101.718 56.0995 101.718 59.4864C101.718 62.8733 104.586 65.7392 107.975 65.7392C111.363 65.7392 114.231 63.1339 114.231 59.4864ZM128.568 72.513C129.088 72.2525 129.35 71.7313 129.35 71.4709V66.7812H136.648V71.4709C136.648 74.5972 134.824 77.7236 131.957 79.2868L111.884 89.4476C110.581 89.9687 109.278 90.4897 107.975 90.4897C106.671 90.4897 105.368 90.2292 104.064 89.4476L83.9924 79.2868C81.1249 77.7236 79.3003 74.8578 79.3003 71.4709V66.7812H86.5991V71.4709C86.5991 71.9919 86.8598 72.513 87.3811 72.513L104.325 81.1105V72.513C98.5901 70.9499 94.4193 65.7392 94.4193 59.4864C94.4193 51.9309 100.676 45.9387 107.975 45.9387C115.273 45.9387 121.529 52.1915 121.529 59.4864C121.529 65.7392 117.358 70.9499 111.624 72.513V81.1105L128.568 72.513Z" fill="white"/>
</svg>
