<svg width="25" height="24" viewBox="0 0 25 24" fill="none" xmlns="http://www.w3.org/2000/svg">
<path fill-rule="evenodd" clip-rule="evenodd" d="M0.600098 12C0.600098 18.6274 5.97268 24 12.6001 24C19.2275 24 24.6001 18.6274 24.6001 12C24.6001 5.37258 19.2275 0 12.6001 0C5.97268 0 0.600098 5.37258 0.600098 12ZM19.4008 9.85323C20.5034 9.85323 21.4001 10.7462 21.4001 11.8437C21.4001 12.5694 21.0065 13.2034 20.423 13.5505C20.4471 13.7163 20.46 13.8839 20.46 14.0534C20.46 16.8837 17.0078 19.1866 12.7649 19.1866C8.5216 19.1866 5.06987 16.8837 5.06987 14.0534C5.06987 13.8706 5.08492 13.6901 5.11287 13.5118C4.56442 13.1569 4.2001 12.5425 4.2001 11.8437C4.2001 10.7462 5.09684 9.85343 6.1994 9.85323C6.68921 9.85323 7.13856 10.0307 7.48667 10.3234C8.81419 9.4872 10.5856 8.96218 12.5382 8.92404L13.6798 5.33144C13.7398 5.14035 13.9388 5.02806 14.1347 5.07379L17.0913 5.76636C17.3559 5.20437 17.928 4.81304 18.5918 4.81304C19.5054 4.81304 20.2491 5.55308 20.2491 6.46301C20.2491 7.37293 19.5056 8.11297 18.5918 8.11297C17.6964 8.11297 16.9668 7.40212 16.9373 6.51808L14.3061 5.90121L13.3417 8.93591C15.1757 9.02718 16.8317 9.5485 18.0844 10.3496C18.4364 10.0418 18.8965 9.85323 19.4008 9.85323Z" fill="white" fill-opacity="0.3"/>
<path d="M20.2122 12.76C19.9309 12.0391 19.4189 11.3796 18.7334 10.8178C18.9257 10.693 19.1548 10.6199 19.4011 10.6199C20.0789 10.6199 20.6303 11.1688 20.6303 11.8437C20.6299 12.2085 20.4677 12.5359 20.2122 12.76Z" fill="white" fill-opacity="0.3"/>
<path d="M18.592 5.58008C19.0812 5.58008 19.4791 5.97647 19.4791 6.46354C19.4791 6.95061 19.0812 7.3468 18.592 7.3468C18.1025 7.3468 17.7046 6.95061 17.7046 6.46354C17.7046 5.97647 18.1025 5.58008 18.592 5.58008Z" fill="white" fill-opacity="0.3"/>
<path fill-rule="evenodd" clip-rule="evenodd" d="M12.7648 18.42C16.5828 18.42 19.6898 16.461 19.6898 14.0537C19.6898 13.9726 19.6856 13.8924 19.6788 13.812C19.6565 13.5556 19.5971 13.3051 19.5074 13.0619C19.2797 12.4479 18.8479 11.8832 18.2573 11.3989C18.0614 11.2379 17.8488 11.0858 17.6199 10.9439C16.3698 10.1673 14.6546 9.68701 12.7648 9.68701C10.9019 9.68701 9.20968 10.154 7.96365 10.9112C7.73536 11.05 7.52212 11.1986 7.3253 11.356C6.7102 11.8478 6.25988 12.4246 6.02513 13.0531C5.93464 13.2956 5.87522 13.5458 5.85196 13.8017C5.84453 13.8852 5.83984 13.9689 5.83984 14.0537C5.83984 16.4612 8.9462 18.42 12.7648 18.42ZM10.2325 11.942C10.882 11.942 11.4085 12.4843 11.4085 13.1308C11.4085 13.777 10.882 14.301 10.2325 14.3018C9.58338 14.3018 9.03865 13.777 9.03865 13.1308C9.03865 12.4843 9.58319 11.942 10.2325 11.942ZM15.3853 11.9416C14.736 11.9416 14.1897 12.4837 14.1897 13.1302C14.1897 13.7768 14.736 14.3012 15.3853 14.3012C16.0348 14.3012 16.5617 13.7772 16.5617 13.1302C16.5613 12.4833 16.0348 11.9416 15.3853 11.9416ZM12.809 16.6124C13.8838 16.6124 14.6173 16.4021 15.053 15.9689C15.2037 15.8195 15.4476 15.8195 15.5983 15.9693C15.7486 16.1188 15.7486 16.3612 15.5979 16.5112C15.0108 17.095 14.0984 17.3793 12.809 17.3793C12.8073 17.3793 12.8057 17.379 12.8041 17.3787C12.8026 17.3785 12.8011 17.3782 12.7996 17.3782C12.798 17.3782 12.7966 17.3785 12.7951 17.3787C12.7936 17.379 12.7921 17.3793 12.7904 17.3793C11.5008 17.3793 10.5886 17.095 10.002 16.5109C9.85155 16.3616 9.85155 16.1189 10.002 15.9689C10.1524 15.8191 10.3963 15.8191 10.5466 15.9689C10.9817 16.4021 11.7154 16.6124 12.7904 16.6124C12.7919 16.6124 12.7934 16.6127 12.7949 16.6129C12.7964 16.6132 12.7979 16.6134 12.7996 16.6134C12.8011 16.6134 12.8026 16.6132 12.8041 16.6129C12.8057 16.6127 12.8073 16.6124 12.809 16.6124Z" fill="white" fill-opacity="0.3"/>
<path d="M4.97021 11.8437C4.97021 11.169 5.52159 10.6199 6.19923 10.6199C6.42811 10.6199 6.64194 10.6839 6.82586 10.7931C6.14001 11.3479 5.62675 12.0007 5.33728 12.7143C5.11075 12.4923 4.97021 12.1842 4.97021 11.8437Z" fill="white" fill-opacity="0.3"/>
</svg>
