<svg width="71" height="15" viewBox="0 0 71 15" fill="none" xmlns="http://www.w3.org/2000/svg">
<g clip-path="url(#clip0_525_1994)">
<path d="M1.86893 2.00008H3.41197C4.82224 2.00008 5.44372 2.43604 5.44372 3.32162C5.44372 4.0912 4.82224 4.61375 3.57479 4.61375H1.86893V2.00008ZM0 10.7077H3.78187C5.76936 10.7077 7.75686 10.0131 7.75686 7.77729C7.75686 6.45575 6.80973 5.44122 5.48987 5.29443V5.26387C6.56976 4.94738 7.31453 4.17802 7.31453 3.0167C7.31453 1.14414 5.68085 0.433594 4.09355 0.433594H0V10.7077ZM1.86893 6.18024H3.6633C5.17605 6.18024 5.89053 6.55809 5.89053 7.63282C5.89053 8.98052 4.55244 9.1412 3.58875 9.1412H1.86893V6.18024Z" fill="white"/>
<path d="M9.87012 10.7079V0.191406" stroke="white" stroke-width="3" stroke-miterlimit="10"/>
<path d="M13.7291 7.22548C13.7291 6.13709 14.5158 5.13668 15.8215 5.13668C17.1271 5.13668 17.9114 6.13732 17.9114 7.22548C17.9114 8.31364 17.1271 9.31452 15.8215 9.31452C14.5156 9.31452 13.7291 8.31387 13.7291 7.22548ZM11.9487 7.22548C11.9487 9.41685 13.6686 10.881 15.8215 10.881C17.9718 10.881 19.6942 9.41708 19.6942 7.22548C19.6942 5.03388 17.972 3.56787 15.8215 3.56787C13.6686 3.56764 11.9487 5.03411 11.9487 7.22548Z" fill="white"/>
<path d="M22.2775 7.22548C22.2775 6.13709 23.0642 5.13668 24.3698 5.13668C25.6755 5.13668 26.4598 6.13732 26.4598 7.22548C26.4598 8.31364 25.6755 9.31452 24.3698 9.31452C23.0642 9.31452 22.2775 8.31387 22.2775 7.22548ZM20.4971 7.22548C20.4971 9.41685 22.2171 10.881 24.3698 10.881C26.5201 10.881 28.2426 9.41708 28.2426 7.22548C28.2426 5.03388 26.5204 3.56787 24.3698 3.56787C22.2169 3.56764 20.4971 5.03411 20.4971 7.22548Z" fill="white"/>
<path d="M29.3267 3.74216H31.0186V4.83171H31.0465C31.3584 4.17835 32.0402 3.56689 33.2271 3.56689C34.3257 3.56689 35.0844 3.98688 35.4543 4.85903C35.9733 3.97553 36.7297 3.56689 37.7956 3.56689C39.6946 3.56689 40.363 4.88959 40.363 6.55864V10.7082H38.5825V6.76123C38.5825 5.89139 38.3172 5.13662 37.2629 5.13662C36.1506 5.13662 35.7338 6.03586 35.7338 6.93417V10.708H33.9558V6.55841C33.9558 5.69992 33.5996 5.13662 32.7386 5.13662C31.5679 5.13662 31.1071 5.97567 31.1071 6.9057V10.708H29.3267V3.74216Z" fill="white"/>
<path d="M47.7104 7.22556C47.7104 8.31511 46.9261 9.31459 45.6181 9.31459C44.3122 9.31459 43.5257 8.31511 43.5257 7.22556C43.5257 6.13716 44.3122 5.1342 45.6181 5.1342C46.9261 5.1342 47.7104 6.13716 47.7104 7.22556ZM41.8059 10.7079H43.4978V9.66373H43.5257C44.0469 10.5028 44.9803 10.8808 45.9761 10.8808C48.1686 10.8808 49.4906 9.28473 49.4906 7.22532C49.4906 5.16476 48.0803 3.56771 46.0486 3.56771C44.7147 3.56771 44.0005 4.1757 43.6303 4.62879H43.5861V0.191406H41.8057V10.7079H41.8059Z" fill="white"/>
<path d="M52.0763 6.52883C52.2091 5.52587 52.863 4.87366 53.9149 4.87366C55.0275 4.87366 55.7093 5.51244 55.7256 6.52883H52.0763ZM57.5061 7.83462V7.35652C57.5061 4.93178 56.1564 3.56787 54.1686 3.56787C52.0136 3.56787 50.2959 5.03411 50.2959 7.22548C50.2959 9.41685 52.0136 10.881 54.1686 10.881C55.2928 10.881 56.3493 10.4895 57.1778 9.48978L55.9024 8.54841C55.458 9.08253 54.8784 9.48978 53.9893 9.48978C52.9957 9.48978 52.1925 8.8649 52.0763 7.83462H57.5061Z" fill="white"/>
<path d="M58.6653 3.74216H60.4457V4.84537H60.476C60.8622 4.04731 61.6465 3.56689 62.582 3.56689C62.8055 3.56689 63.0125 3.61135 63.2196 3.67039V5.3531C62.924 5.28133 62.6403 5.22321 62.3584 5.22321C60.6828 5.22321 60.4455 6.60286 60.4455 6.98094V10.7082H58.665V3.74216H58.6653Z" fill="white"/>
<path d="M67.2021 5.13662C68.4915 5.13662 69.3082 5.97567 69.3082 7.18329C69.3082 8.3423 68.5076 9.22788 67.1879 9.22788C65.9871 9.22788 65.0956 8.31382 65.0956 7.21061C65.0956 5.97567 65.9545 5.13662 67.2021 5.13662ZM69.3082 3.74216V4.78726H69.2803C68.7591 3.94474 67.8236 3.56689 66.8299 3.56689C64.6353 3.56689 63.3154 5.16394 63.3154 7.22566C63.3154 9.19732 64.7257 10.7946 66.8602 10.7946C67.7514 10.7946 68.6706 10.4621 69.1922 9.78029H69.2176V10.2892C69.2176 11.6665 68.687 12.6253 66.9648 12.6253C65.971 12.6253 65.2284 12.2608 64.5163 11.6188L63.4503 13.0438C64.4557 13.9181 65.6589 14.1915 66.9809 14.1915C69.7553 14.1915 71.0001 12.5933 71.0001 10.0841V3.74216H69.3082Z" fill="white"/>
</g>
<defs>
<clipPath id="clip0_525_1994">
<rect width="71" height="14" fill="white" transform="translate(0 0.191406)"/>
</clipPath>
</defs>
</svg>
