<svg width="45" height="15" viewBox="0 0 45 15" fill="none" xmlns="http://www.w3.org/2000/svg">
<path fill-rule="evenodd" clip-rule="evenodd" d="M3.48816 14.0957H4.53495V8.4957H3.48816V14.0957ZM7.32539 14.0117H8.26296V10.4785L12.2094 14.0957V8.5797H11.2745V12.0526L7.32539 8.4957V14.0117ZM14.3498 12.6555C14.86 13.0536 15.4726 13.2837 16.1292 13.2837C16.7688 13.2837 17.2175 13.0632 17.2175 12.5763C17.2175 12.1519 16.9314 11.9856 16.4302 11.7997L15.6189 11.5175C14.871 11.2515 14.3021 10.863 14.3021 9.97008C14.3021 9.01502 15.1633 8.4957 16.193 8.4957C16.8239 8.4957 17.3988 8.65452 17.848 8.93583V9.88302C17.3809 9.53739 16.8698 9.29939 16.2131 9.29939C15.6478 9.29939 15.2253 9.5107 15.2253 9.95127C15.2253 10.3494 15.4905 10.5086 15.9575 10.6688L16.8615 10.9864C17.7374 11.2948 18.1394 11.773 18.1394 12.5596C18.1394 13.5493 17.27 14.0957 16.1292 14.0957C15.3795 14.0957 14.7421 13.8857 14.3498 13.6206V12.6555ZM20.5816 14.0957H21.628V8.4957H20.5816V14.0957ZM26.5369 13.2483C27.7165 13.2483 28.3469 12.4905 28.3469 11.2944C28.3469 10.0895 27.7161 9.33439 26.5369 9.33439H25.3704V13.2483H26.5369ZM24.418 8.4957H26.5718C28.2299 8.4957 29.302 9.58945 29.302 11.2944C29.302 13.0006 28.2299 14.0957 26.5718 14.0957H24.418V8.4957ZM34.5351 8.4957V9.33439H32.0024V10.6819H34.2738V11.511H32.002V13.2483H34.5351V14.0957H31.0465V8.4957H34.5351ZM38.2496 11.0315H39.2881C39.9028 11.0315 40.2492 10.6937 40.2492 10.1744C40.2492 9.65508 39.9028 9.31689 39.2881 9.31689H38.2496V11.0319V11.0315ZM38.2496 11.8233V14.0957H37.3255V8.4957H39.3055C40.4345 8.4957 41.165 9.07802 41.165 10.1744C41.165 11.112 40.7595 11.6505 39.8958 11.7888L41.8605 14.0957H40.8093L38.9071 11.8238H38.25L38.2496 11.8233ZM3.12248 2.97883C3.53184 2.82877 3.85078 2.37858 3.85078 1.75952C3.85078 0.727891 3.12248 0.193266 1.95728 0.193266H0V5.95208H2.13903C3.30422 5.95208 4.03252 5.37983 4.03252 4.30139C4.03252 3.69152 3.65024 3.15689 3.12248 2.97883ZM0.919223 2.61308V1.03764H1.94854C2.59515 1.03764 2.94073 1.27214 2.94073 1.81595C2.94073 2.35977 2.59471 2.61308 1.94854 2.61308H0.919223ZM0.919223 3.41983H2.12068C2.75854 3.41983 3.10413 3.73833 3.10413 4.26377C3.10413 4.77958 2.75811 5.10814 2.12112 5.10814H0.91966V3.41939L0.919223 3.41983ZM8.30315 6.0457C9.64136 6.0457 10.5427 5.23895 10.5427 3.66352V0.193266H9.59592V3.55064C9.59592 4.65752 9.14068 5.17377 8.30315 5.17377C7.46563 5.17377 7.01083 4.65752 7.01083 3.55064V0.193266H6.06408V3.65389C6.06408 5.23895 6.97413 6.0457 8.30315 6.0457ZM12.7717 5.53908C13.1632 5.82083 13.8006 6.0457 14.5468 6.0457C15.6849 6.0457 16.5495 5.46383 16.5495 4.41383C16.5495 3.57908 16.1493 3.07245 15.2751 2.74433L14.3742 2.40658C13.9098 2.23814 13.6459 2.06927 13.6459 1.64708C13.6459 1.17808 14.0645 0.953203 14.6289 0.953203C15.2843 0.953203 15.7941 1.20608 16.2585 1.57227V0.568203C15.8125 0.268516 15.2388 0.0996406 14.6106 0.0996406C13.5821 0.0996406 12.7263 0.653078 12.7263 1.66589C12.7263 2.61308 13.2907 3.02564 14.0369 3.30695L14.8474 3.60708C15.3481 3.80395 15.6303 3.98245 15.6303 4.43264C15.6303 4.94845 15.1842 5.18295 14.5468 5.18295C13.8915 5.18295 13.2816 4.93883 12.7717 4.51708V5.53908ZM19.9324 0.193266H18.9861V5.95164H19.9324V0.193266ZM22.6333 5.94464H23.5455V2.19833L27.3849 6.03389V0.184516H26.4753V3.86695L22.6333 0.0957031V5.94464ZM33.3009 0.194578V1.05689H30.8429V2.44289H33.047V3.29558H30.8429V5.08189H33.3009V5.95339H29.915V0.194578H33.3009ZM35.505 5.53514C35.8965 5.81689 36.5334 6.04177 37.2801 6.04177C38.4178 6.04177 39.2828 5.46033 39.2828 4.40989C39.2828 3.57514 38.8822 3.06895 38.0084 2.74039L37.1071 2.40308C36.6427 2.2342 36.3788 2.06533 36.3788 1.64314C36.3788 1.17414 36.7973 0.949266 37.3618 0.949266C38.0171 0.949266 38.527 1.20258 38.9914 1.56833V0.564703C38.5453 0.264578 37.9717 0.0957031 37.3434 0.0957031C36.315 0.0957031 35.4591 0.649141 35.4591 1.66195C35.4591 2.60914 36.0236 3.0217 36.7698 3.30302L37.5802 3.60314C38.0809 3.80002 38.3632 3.97852 38.3632 4.4287C38.3632 4.94452 37.9175 5.17902 37.2797 5.17902C36.6243 5.17902 36.0144 4.93533 35.505 4.51314V5.53514ZM41.2222 5.53514C41.6136 5.81689 42.2511 6.04177 42.9973 6.04177C44.1354 6.04177 45 5.46033 45 4.40989C45 3.57514 44.5994 3.06895 43.7256 2.74039L42.8243 2.40308C42.3603 2.2342 42.096 2.06533 42.096 1.64314C42.096 1.17414 42.5149 0.949266 43.079 0.949266C43.7343 0.949266 44.2446 1.20258 44.7086 1.56833V0.564703C44.263 0.264578 43.6893 0.0957031 43.0611 0.0957031C42.0322 0.0957031 41.1767 0.649141 41.1767 1.66195C41.1767 2.60914 41.7412 3.0217 42.4874 3.30302L43.2979 3.60314C43.7985 3.80002 44.0808 3.97852 44.0808 4.4287C44.0808 4.94452 43.6347 5.17902 42.9973 5.17902C42.3419 5.17902 41.732 4.93533 41.2222 4.51314V5.53514Z" fill="white"/>
</svg>
