<svg width="65" height="64" viewBox="0 0 65 64" fill="none" xmlns="http://www.w3.org/2000/svg">
<rect x="0.833008" width="64" height="64" rx="16" fill="#00C7FD"/>
<path d="M28.5955 39.0751C27.1705 43.3126 21.5205 43.3125 21.5205 43.3125C21.5205 43.3125 21.5205 37.6625 25.758 36.2375" stroke="white" stroke-width="2" stroke-linecap="round" stroke-linejoin="round"/>
<path d="M41.3204 29.175L32.8329 37.6625L27.1704 32L35.6579 23.5125C38.8704 20.3 42.0829 20.3375 43.4579 20.5375C43.6701 20.5658 43.867 20.6631 44.0184 20.8145C44.1698 20.9658 44.2671 21.1628 44.2954 21.375C44.4954 22.75 44.5329 25.9625 41.3204 29.175Z" stroke="white" stroke-width="2" stroke-linecap="round" stroke-linejoin="round"/>
<path d="M39.908 30.5875V38.6625C39.9043 38.9263 39.7964 39.1779 39.608 39.3625L35.5705 43.4125C35.4424 43.5405 35.282 43.6312 35.1063 43.6752C34.9307 43.7191 34.7464 43.7145 34.5732 43.6619C34.4 43.6092 34.2443 43.5106 34.1227 43.3764C34.0012 43.2422 33.9183 43.0776 33.883 42.9L32.833 37.6625" stroke="white" stroke-width="2" stroke-linecap="round" stroke-linejoin="round"/>
<path d="M34.2454 24.925H26.1704C25.9066 24.9288 25.655 25.0366 25.4704 25.225L21.4204 29.2625C21.2925 29.3906 21.2017 29.5511 21.1578 29.7267C21.1139 29.9023 21.1185 30.0866 21.1711 30.2598C21.2237 30.4331 21.3223 30.5888 21.4565 30.7103C21.5907 30.8319 21.7553 30.9147 21.9329 30.95L27.1704 32" stroke="white" stroke-width="2" stroke-linecap="round" stroke-linejoin="round"/>
</svg>
