<svg width="18" height="12" viewBox="0 0 18 12" fill="none" xmlns="http://www.w3.org/2000/svg">
<g clip-path="url(#clip0_488_3569)">
<mask id="mask0_488_3569" style="mask-type:alpha" maskUnits="userSpaceOnUse" x="0" y="0" width="18" height="12">
<path d="M15.5999 0H1.9999C1.11625 0 0.399902 0.716344 0.399902 1.6V10.4C0.399902 11.2837 1.11625 12 1.9999 12H15.5999C16.4836 12 17.1999 11.2837 17.1999 10.4V1.6C17.1999 0.716344 16.4836 0 15.5999 0Z" fill="white"/>
</mask>
<g mask="url(#mask0_488_3569)">
<path d="M15.5999 0H1.9999C1.11625 0 0.399902 0.716344 0.399902 1.6V10.4C0.399902 11.2837 1.11625 12 1.9999 12H15.5999C16.4836 12 17.1999 11.2837 17.1999 10.4V1.6C17.1999 0.716344 16.4836 0 15.5999 0Z" fill="#E02600"/>
<path fill-rule="evenodd" clip-rule="evenodd" d="M4.7984 5.7839L3.6224 6.4023L3.8464 5.0927L2.896 4.1647L4.2104 3.9751L4.7984 2.7831L5.3856 3.9751L6.7 4.1647L5.748 5.0927L5.9736 6.4015L4.7984 5.7839ZM7.6 2.3999H8.4V3.1999H7.6V2.3999ZM8.4 3.9999H9.2V4.7999H8.4V3.9999ZM8.4 5.5999H9.2V6.3999H8.4V5.5999ZM7.6 7.1999H8.4V7.9999H7.6V7.1999Z" fill="#FFE000"/>
<path d="M15.5998 0.399902H1.9998C1.33706 0.399902 0.799805 0.937161 0.799805 1.5999V10.3999C0.799805 11.0626 1.33706 11.5999 1.9998 11.5999H15.5998C16.2625 11.5999 16.7998 11.0626 16.7998 10.3999V1.5999C16.7998 0.937161 16.2625 0.399902 15.5998 0.399902Z" stroke="black" stroke-opacity="0.1"/>
</g>
</g>
<defs>
<clipPath id="clip0_488_3569">
<rect width="16.8" height="12" fill="white" transform="translate(0.399902)"/>
</clipPath>
</defs>
</svg>
