<svg width="91" height="15" viewBox="0 0 91 15" fill="none" xmlns="http://www.w3.org/2000/svg">
<path d="M5.51373 11.429C4.72746 11.429 3.99525 11.3034 3.31709 11.0522C2.64875 10.7914 2.06396 10.429 1.56272 9.96527C1.0713 9.49184 0.687988 8.93628 0.412793 8.2986C0.137598 7.66092 0 6.96527 0 6.21164C0 5.45802 0.137598 4.76237 0.412793 4.12469C0.687988 3.48701 1.07621 2.93628 1.57746 2.47251C2.07871 1.99908 2.6635 1.63677 3.33183 1.38556C4.00016 1.12469 4.73238 0.994253 5.52848 0.994253C6.37372 0.994253 7.14525 1.13918 7.84307 1.42904C8.54088 1.70923 9.13059 2.12952 9.61218 2.68991L8.3738 3.83483C8.00032 3.4387 7.58261 3.14401 7.12068 2.95077C6.65874 2.74788 6.1575 2.64643 5.61693 2.64643C5.07637 2.64643 4.58004 2.73338 4.12793 2.9073C3.68565 3.08121 3.29743 3.32759 2.96326 3.64643C2.63893 3.96527 2.38339 4.34208 2.19665 4.77686C2.01974 5.21164 1.93128 5.68991 1.93128 6.21164C1.93128 6.73338 2.01974 7.21165 2.19665 7.64643C2.38339 8.08121 2.63893 8.45802 2.96326 8.77686C3.29743 9.0957 3.68565 9.34208 4.12793 9.51599C4.58004 9.68991 5.07637 9.77686 5.61693 9.77686C6.1575 9.77686 6.65874 9.68024 7.12068 9.48701C7.58261 9.28411 8.00032 8.97976 8.3738 8.57396L9.61218 9.73338C9.13059 10.2841 8.54088 10.7044 7.84307 10.9943C7.14525 11.2841 6.36881 11.429 5.51373 11.429Z" fill="white"/>
<path d="M14.2864 11.3856C13.4805 11.3856 12.763 11.2165 12.134 10.8783C11.505 10.5305 11.0086 10.0571 10.645 9.45802C10.2813 8.85899 10.0995 8.17783 10.0995 7.41454C10.0995 6.6416 10.2813 5.96044 10.645 5.37107C11.0086 4.77203 11.505 4.30343 12.134 3.96527C12.763 3.6271 13.4805 3.45802 14.2864 3.45802C15.1021 3.45802 15.8245 3.6271 16.4536 3.96527C17.0924 4.30343 17.5887 4.7672 17.9426 5.35657C18.3062 5.94594 18.488 6.63193 18.488 7.41454C18.488 8.17783 18.3062 8.85899 17.9426 9.45802C17.5887 10.0571 17.0924 10.5305 16.4536 10.8783C15.8245 11.2165 15.1021 11.3856 14.2864 11.3856ZM14.2864 9.83483C14.7385 9.83483 15.1415 9.73822 15.4953 9.54498C15.8491 9.35174 16.1243 9.07155 16.3209 8.7044C16.5273 8.33725 16.6305 7.9073 16.6305 7.41454C16.6305 6.91213 16.5273 6.48218 16.3209 6.12469C16.1243 5.75754 15.8491 5.47735 15.4953 5.28411C15.1415 5.09087 14.7434 4.99425 14.3011 4.99425C13.849 4.99425 13.4461 5.09087 13.0922 5.28411C12.7482 5.47735 12.4731 5.75754 12.2667 6.12469C12.0603 6.48218 11.9571 6.91213 11.9571 7.41454C11.9571 7.9073 12.0603 8.33725 12.2667 8.7044C12.4731 9.07155 12.7482 9.35174 13.0922 9.54498C13.4461 9.73822 13.8441 9.83483 14.2864 9.83483Z" fill="white"/>
<path d="M20.0291 11.2841V3.54498H21.8719V11.2841H20.0291ZM20.9579 2.26962C20.6139 2.26962 20.3289 2.16334 20.1028 1.95077C19.8866 1.73821 19.7785 1.48218 19.7785 1.18266C19.7785 0.873481 19.8866 0.617442 20.1028 0.414543C20.3289 0.201983 20.6139 0.0957031 20.9579 0.0957031C21.3019 0.0957031 21.582 0.197152 21.7982 0.40005C22.0243 0.593288 22.1373 0.839664 22.1373 1.13918C22.1373 1.45802 22.0292 1.72855 21.813 1.95077C21.5967 2.16334 21.3117 2.26962 20.9579 2.26962Z" fill="white"/>
<path d="M28.5365 3.45802C29.1655 3.45802 29.7257 3.57879 30.2172 3.82034C30.7184 4.06189 31.1115 4.43387 31.3966 4.93628C31.6816 5.42904 31.8241 6.06672 31.8241 6.84933V11.2841H29.9813V7.08121C29.9813 6.39522 29.8142 5.88314 29.48 5.54498C29.1557 5.20681 28.6987 5.03773 28.109 5.03773C27.6765 5.03773 27.2932 5.12469 26.959 5.2986C26.6249 5.47251 26.3644 5.73338 26.1777 6.08121C26.0008 6.41937 25.9123 6.84933 25.9123 7.37106V11.2841H24.0695V3.54498H25.8239V5.63193L25.5143 4.99425C25.7895 4.5015 26.1875 4.12469 26.7084 3.86382C27.2392 3.59329 27.8485 3.45802 28.5365 3.45802Z" fill="white"/>
<path d="M36.3732 11.3856C35.7147 11.3856 35.0808 11.3034 34.4714 11.1392C33.8719 10.9653 33.3952 10.7575 33.0414 10.516L33.7491 9.13918C34.1029 9.3614 34.5255 9.54498 35.0169 9.68991C35.5083 9.83483 35.9998 9.9073 36.4912 9.9073C37.071 9.9073 37.4888 9.83 37.7443 9.67541C38.0097 9.52082 38.1423 9.31309 38.1423 9.05223C38.1423 8.83966 38.0539 8.68024 37.877 8.57396C37.7001 8.45802 37.4691 8.37107 37.1841 8.31309C36.8991 8.25512 36.5796 8.20198 36.2258 8.15367C35.8818 8.10536 35.5329 8.04256 35.1791 7.96527C34.8351 7.87831 34.5206 7.75754 34.2356 7.60295C33.9505 7.4387 33.7196 7.22131 33.5427 6.95078C33.3657 6.68024 33.2773 6.32276 33.2773 5.87831C33.2773 5.38556 33.4198 4.96044 33.7048 4.60295C33.9898 4.2358 34.3879 3.95561 34.899 3.76237C35.4199 3.55947 36.0342 3.45802 36.7418 3.45802C37.2725 3.45802 37.8082 3.51599 38.3487 3.63194C38.8893 3.74788 39.3365 3.91213 39.6903 4.12469L38.9827 5.5015C38.6092 5.27928 38.2308 5.12952 37.8475 5.05222C37.474 4.96527 37.1005 4.92179 36.7271 4.92179C36.1668 4.92179 35.7491 5.00392 35.4739 5.16817C35.2086 5.33242 35.0759 5.54015 35.0759 5.79136C35.0759 6.02324 35.1643 6.19715 35.3412 6.31309C35.5182 6.42904 35.7491 6.52082 36.0342 6.58846C36.3192 6.65609 36.6337 6.71406 36.9777 6.76237C37.3315 6.80102 37.6804 6.86382 38.0244 6.95078C38.3684 7.03773 38.6829 7.1585 38.9679 7.31309C39.2628 7.45802 39.4987 7.66575 39.6756 7.93628C39.8525 8.20681 39.9409 8.55947 39.9409 8.99425C39.9409 9.47735 39.7935 9.89764 39.4987 10.2551C39.2136 10.6126 38.8058 10.8928 38.275 11.0957C37.7443 11.2889 37.1104 11.3856 36.3732 11.3856Z" fill="white"/>
<path d="M45.6706 11.3856C45.0318 11.3856 44.447 11.2406 43.9163 10.9508C43.3954 10.6609 42.9776 10.2261 42.6631 9.64643C42.3585 9.05706 42.2061 8.31309 42.2061 7.41454C42.2061 6.50633 42.3535 5.76237 42.6484 5.18266C42.9531 4.60295 43.3659 4.173 43.8868 3.8928C44.4077 3.60295 45.0023 3.45802 45.6706 3.45802C46.4471 3.45802 47.1301 3.62227 47.7199 3.95078C48.3194 4.27928 48.7911 4.73821 49.1351 5.32759C49.489 5.91696 49.6659 6.61261 49.6659 7.41454C49.6659 8.21648 49.489 8.91696 49.1351 9.51599C48.7911 10.1054 48.3194 10.5643 47.7199 10.8928C47.1301 11.2213 46.4471 11.3856 45.6706 11.3856ZM41.3068 14.0957V3.54498H43.0612V5.37107L43.0022 7.42904L43.1496 9.48701V14.0957H41.3068ZM45.4642 9.83483C45.9065 9.83483 46.2997 9.73822 46.6436 9.54498C46.9975 9.35174 47.2776 9.07155 47.484 8.7044C47.6904 8.33725 47.7936 7.9073 47.7936 7.41454C47.7936 6.91213 47.6904 6.48218 47.484 6.12469C47.2776 5.75754 46.9975 5.47735 46.6436 5.28411C46.2997 5.09087 45.9065 4.99425 45.4642 4.99425C45.022 4.99425 44.6239 5.09087 44.2701 5.28411C43.9163 5.47735 43.6362 5.75754 43.4298 6.12469C43.2234 6.48218 43.1202 6.91213 43.1202 7.41454C43.1202 7.9073 43.2234 8.33725 43.4298 8.7044C43.6362 9.07155 43.9163 9.35174 44.2701 9.54498C44.6239 9.73822 45.022 9.83483 45.4642 9.83483Z" fill="white"/>
<path d="M54.8928 11.3856C54.0181 11.3856 53.2515 11.2165 52.593 10.8783C51.9443 10.5305 51.4381 10.0571 51.0745 9.45802C50.7207 8.85899 50.5438 8.17783 50.5438 7.41454C50.5438 6.6416 50.7158 5.96044 51.0597 5.37107C51.4136 4.77203 51.8952 4.30343 52.5045 3.96527C53.1237 3.6271 53.8264 3.45802 54.6127 3.45802C55.3793 3.45802 56.0624 3.62227 56.6619 3.95078C57.2615 4.27928 57.7332 4.74305 58.0772 5.34208C58.4212 5.94111 58.5932 6.64643 58.5932 7.45802C58.5932 7.53532 58.5883 7.62227 58.5785 7.71889C58.5785 7.81551 58.5736 7.9073 58.5637 7.99425H52.0033V6.79136H57.5907L56.8683 7.16817C56.8782 6.72372 56.7848 6.33242 56.5882 5.99425C56.3917 5.65609 56.1214 5.39039 55.7774 5.19715C55.4432 5.00392 55.055 4.9073 54.6127 4.9073C54.1606 4.9073 53.7626 5.00392 53.4186 5.19715C53.0844 5.39039 52.819 5.66092 52.6225 6.00875C52.4357 6.34691 52.3424 6.74788 52.3424 7.21164V7.5015C52.3424 7.96527 52.4505 8.3759 52.6667 8.73338C52.8829 9.09087 53.1876 9.36623 53.5807 9.55947C53.9739 9.75271 54.426 9.84933 54.9371 9.84933C55.3793 9.84933 55.7774 9.78169 56.1312 9.64643C56.485 9.51116 56.7995 9.2986 57.0747 9.00875L58.0625 10.1247C57.7087 10.5305 57.2615 10.8445 56.7209 11.0667C56.1902 11.2793 55.5808 11.3856 54.8928 11.3856Z" fill="white"/>
<path d="M64.7766 11.2841V9.71889L64.6734 9.38556V6.64643C64.6734 6.11503 64.5112 5.7044 64.1869 5.41454C63.8625 5.11503 63.3711 4.96527 62.7126 4.96527C62.2703 4.96527 61.833 5.0329 61.4005 5.16817C60.9779 5.30343 60.6192 5.49184 60.3243 5.73338L59.6019 4.41454C60.0246 4.0957 60.5258 3.85899 61.1057 3.7044C61.6954 3.54015 62.3047 3.45802 62.9338 3.45802C64.0739 3.45802 64.9535 3.72855 65.5727 4.26962C66.2017 4.80102 66.5162 5.6271 66.5162 6.74788V11.2841H64.7766ZM62.2998 11.3856C61.7101 11.3856 61.1941 11.2889 60.7519 11.0957C60.3096 10.8928 59.9656 10.6174 59.7199 10.2696C59.484 9.91213 59.3661 9.51116 59.3661 9.06672C59.3661 8.63194 59.4692 8.24063 59.6756 7.8928C59.8919 7.54498 60.2408 7.26962 60.7224 7.06672C61.204 6.86382 61.8428 6.76237 62.6389 6.76237H64.924V7.96527H62.7716C62.1426 7.96527 61.72 8.06672 61.5037 8.26962C61.2875 8.46285 61.1794 8.7044 61.1794 8.99425C61.1794 9.32276 61.3121 9.58362 61.5774 9.77686C61.8428 9.9701 62.2114 10.0667 62.6831 10.0667C63.1352 10.0667 63.5382 9.96527 63.892 9.76237C64.2557 9.55947 64.5161 9.25995 64.6734 8.86382L64.983 9.95078C64.8061 10.4049 64.4866 10.7575 64.0247 11.0087C63.5726 11.26 62.9976 11.3856 62.2998 11.3856Z" fill="white"/>
<path d="M70.1639 9.55947L70.2081 7.28411L74.3213 3.54498H76.5327L73.0387 6.99425L72.0657 7.79136L70.1639 9.55947ZM68.6601 11.2841V0.530485H70.5029V11.2841H68.6601ZM74.6014 11.2841L71.7266 7.79136L72.8912 6.34208L76.8423 11.2841H74.6014Z" fill="white"/>
<path d="M81.1951 11.3856C80.3204 11.3856 79.5538 11.2165 78.8953 10.8783C78.2466 10.5305 77.7404 10.0571 77.3768 9.45802C77.023 8.85899 76.8461 8.17783 76.8461 7.41454C76.8461 6.6416 77.0181 5.96044 77.362 5.37107C77.7159 4.77203 78.1975 4.30343 78.8068 3.96527C79.426 3.6271 80.1287 3.45802 80.915 3.45802C81.6816 3.45802 82.3647 3.62227 82.9642 3.95078C83.5638 4.27928 84.0355 4.74305 84.3795 5.34208C84.7235 5.94111 84.8955 6.64643 84.8955 7.45802C84.8955 7.53532 84.8906 7.62227 84.8808 7.71889C84.8808 7.81551 84.8759 7.9073 84.866 7.99425H78.3056V6.79136H83.893L83.1706 7.16817C83.1805 6.72372 83.0871 6.33242 82.8905 5.99425C82.694 5.65609 82.4237 5.39039 82.0797 5.19715C81.7455 5.00392 81.3573 4.9073 80.915 4.9073C80.4629 4.9073 80.0649 5.00392 79.7209 5.19715C79.3867 5.39039 79.1213 5.66092 78.9248 6.00875C78.738 6.34691 78.6447 6.74788 78.6447 7.21164V7.5015C78.6447 7.96527 78.7528 8.3759 78.969 8.73338C79.1852 9.09087 79.4899 9.36623 79.883 9.55947C80.2762 9.75271 80.7283 9.84933 81.2393 9.84933C81.6816 9.84933 82.0797 9.78169 82.4335 9.64643C82.7873 9.51116 83.1018 9.2986 83.377 9.00875L84.3648 10.1247C84.011 10.5305 83.5638 10.8445 83.0232 11.0667C82.4925 11.2793 81.8831 11.3856 81.1951 11.3856Z" fill="white"/>
<path d="M86.4445 11.2841V3.54498H88.1989V5.67541L87.9925 5.05222C88.2284 4.53049 88.5969 4.13435 89.0982 3.86382C89.6093 3.59329 90.2432 3.45802 91 3.45802V5.18266C90.9214 5.16334 90.8477 5.15367 90.7789 5.15367C90.7101 5.14401 90.6413 5.13918 90.5725 5.13918C89.8746 5.13918 89.3193 5.34208 88.9065 5.74788C88.4938 6.14401 88.2874 6.73821 88.2874 7.53049V11.2841H86.4445Z" fill="white"/>
</svg>
