<svg width="65" height="64" viewBox="0 0 65 64" fill="none" xmlns="http://www.w3.org/2000/svg">
<rect x="0.166992" width="64" height="64" rx="16" fill="#443DE9"/>
<path d="M32.167 32L44.167 20" stroke="white" stroke-width="2" stroke-linecap="round" stroke-linejoin="round"/>
<path d="M40.6545 23.5125C38.5271 21.3787 35.6761 20.1213 32.6659 19.9892C29.6556 19.8572 26.7055 20.86 24.3994 22.7993C22.0933 24.7386 20.5992 27.473 20.213 30.4613C19.8268 33.4495 20.5765 36.4739 22.3137 38.9358C24.051 41.3977 26.6492 43.1177 29.5941 43.7553C32.539 44.393 35.616 43.9018 38.216 42.379C40.816 40.8562 42.7496 38.4128 43.6341 35.5324C44.5185 32.652 44.2894 29.5445 42.992 26.825" stroke="white" stroke-width="2" stroke-linecap="round" stroke-linejoin="round"/>
<path d="M36.4043 27.7625C35.4134 26.7744 34.1075 26.1645 32.7137 26.0389C31.3199 25.9134 29.9261 26.28 28.7745 27.0751C27.6228 27.8703 26.7861 29.0437 26.4097 30.3916C26.0332 31.7395 26.1408 33.1767 26.7137 34.4535C27.2867 35.7303 28.2887 36.7661 29.5459 37.381C30.8031 37.9958 32.2359 38.1509 33.5955 37.8192C34.9551 37.4875 36.1556 36.6901 36.9884 35.5654C37.8212 34.4407 38.2337 33.0598 38.1543 31.6625" stroke="white" stroke-width="2" stroke-linecap="round" stroke-linejoin="round"/>
</svg>
