<svg width="101" height="17" viewBox="0 0 101 17" fill="none" xmlns="http://www.w3.org/2000/svg">
<path d="M0.411621 16.078V1.55173H7.05963C9.3436 1.55173 10.4856 2.73068 10.4856 5.08857V6.35173C10.4856 6.82893 10.3496 7.23594 10.0777 7.57278L9.364 8.457L10.2205 9.19384C10.6691 9.57279 10.8934 10.1342 10.8934 10.878V12.5412C10.8934 14.8991 9.75146 16.078 7.46748 16.078H0.411621ZM3.34816 13.3412H7.34512C7.75298 13.3412 7.9569 13.1307 7.9569 12.7096V10.6044C7.9569 10.1833 7.75298 9.97278 7.34512 9.97278H3.34816V13.3412ZM3.34816 7.23594H6.93727C7.34512 7.23594 7.54905 7.02542 7.54905 6.60436V4.92015C7.54905 4.4991 7.34512 4.28858 6.93727 4.28858H3.34816V7.23594Z" fill="white"/>
<path d="M13.1233 12.0359V0.499102H15.9374V12.3307C15.9374 13.2009 16.3725 13.6851 17.2426 13.7833V16.2886C14.4964 16.2886 13.1233 14.871 13.1233 12.0359Z" fill="white"/>
<path d="M19.0488 12.6675V8.37279C19.0488 6.0991 20.15 4.96226 22.3524 4.96226H25.2073C27.4097 4.96226 28.5109 6.0991 28.5109 8.37279V12.6675C28.5109 14.9412 27.4097 16.078 25.2073 16.078H22.3524C20.15 16.078 19.0488 14.9412 19.0488 12.6675ZM21.8629 12.878C21.8629 13.3272 22.0805 13.5517 22.5155 13.5517H25.0442C25.4792 13.5517 25.6968 13.3272 25.6968 12.878V8.16226C25.6968 7.71314 25.4792 7.48857 25.0442 7.48857H22.5155C22.0805 7.48857 21.8629 7.71314 21.8629 8.16226V12.878Z" fill="white"/>
<path d="M30.8112 12.6675V8.37279C30.8112 6.0991 31.9124 4.96226 34.1148 4.96226H37.9078L39.1314 5.90963V7.48857H34.2779C33.8429 7.48857 33.6254 7.71314 33.6254 8.16226V12.878C33.6254 13.3272 33.8429 13.5517 34.2779 13.5517H39.1314V15.1307L37.9078 16.078H34.1148C31.9124 16.078 30.8112 14.9412 30.8112 12.6675Z" fill="white"/>
<path d="M41.2232 16.078V0.499102H44.0374V9.15173L47.7693 4.96226H50.5427L50.767 5.44647L47.0351 9.59384L51.0525 15.5938L50.8282 16.078H48.0751L45.1794 11.678L44.0374 12.9623V16.078H41.2232Z" fill="white"/>
<path d="M52.5835 12.6675V8.37279C52.5835 6.0991 53.6847 4.96226 55.8871 4.96226H59.6802L60.9037 5.90963V7.48857H56.0503C55.6152 7.48857 55.3977 7.71314 55.3977 8.16226V12.878C55.3977 13.3272 55.6152 13.5517 56.0503 13.5517H60.9037V15.1307L59.6802 16.078H55.8871C53.6847 16.078 52.5835 14.9412 52.5835 12.6675Z" fill="white"/>
<path d="M62.9956 16.078V0.499102H65.8097V4.96226H68.9502C71.1526 4.96226 72.2538 6.0991 72.2538 8.37279V16.078H69.4396V8.16226C69.4396 7.71314 69.2221 7.48857 68.7871 7.48857H65.8097V16.078H62.9956Z" fill="white"/>
<path d="M77.5304 16.078C75.328 16.078 74.2268 14.9623 74.2268 12.7307C74.2268 10.4991 75.328 9.38331 77.5304 9.38331H80.3446V8.16226C80.3446 7.71314 80.1271 7.48857 79.692 7.48857H75.3688V5.90963L76.5924 4.96226H79.8552C82.0576 4.96226 83.1588 6.0991 83.1588 8.37279V16.078H77.5304ZM77.041 12.878C77.041 13.3272 77.2585 13.5517 77.6936 13.5517H80.3446V11.6149H77.6936C77.2585 11.6149 77.041 11.8395 77.041 12.2886V12.878Z" fill="white"/>
<path d="M85.6427 3.13068V0.288574H88.5793V3.13068H85.6427ZM85.7039 16.078V4.96226H88.5181V16.078H85.7039Z" fill="white"/>
<path d="M91.1533 16.078V4.96226H97.108C99.3104 4.96226 100.412 6.0991 100.412 8.37279V16.078H97.5974V8.16226C97.5974 7.71314 97.3799 7.48857 96.9449 7.48857H93.9675V16.078H91.1533Z" fill="white"/>
</svg>
