<svg width="16" height="16" viewBox="0 0 16 16" fill="none" xmlns="http://www.w3.org/2000/svg">
<path d="M12.25 13.5C13.2165 13.5 14 12.7165 14 11.75C14 10.7835 13.2165 10 12.25 10C11.2835 10 10.5 10.7835 10.5 11.75C10.5 12.7165 11.2835 13.5 12.25 13.5Z" stroke="#FF136D" stroke-linecap="round" stroke-linejoin="round"/>
<path d="M12.25 10V7.49375C12.2489 6.69673 11.932 5.93262 11.3687 5.36875L9 3" stroke="#FF136D" stroke-linecap="round" stroke-linejoin="round"/>
<path d="M9 5.5V3H11.5" stroke="#FF136D" stroke-linecap="round" stroke-linejoin="round"/>
<path d="M3.75 6C4.7165 6 5.5 5.2165 5.5 4.25C5.5 3.2835 4.7165 2.5 3.75 2.5C2.7835 2.5 2 3.2835 2 4.25C2 5.2165 2.7835 6 3.75 6Z" stroke="#FF136D" stroke-linecap="round" stroke-linejoin="round"/>
<path d="M3.75 6V8.50625C3.75108 9.30327 4.06796 10.0674 4.63125 10.6313L7 13" stroke="#FF136D" stroke-linecap="round" stroke-linejoin="round"/>
<path d="M7 10.5V13H4.5" stroke="#FF136D" stroke-linecap="round" stroke-linejoin="round"/>
</svg>
