<svg width="25" height="24" viewBox="0 0 25 24" fill="none" xmlns="http://www.w3.org/2000/svg">
<path d="M12.6218 0.0900879C6.00755 0.0900879 0.644043 5.54404 0.644043 12.2724C0.644043 17.6549 4.07604 22.2214 8.83518 23.8323C9.43379 23.945 9.65356 23.568 9.65356 23.2462C9.65356 22.9557 9.64246 21.9961 9.6373 20.9781C6.30507 21.7151 5.60193 19.5407 5.60193 19.5407C5.05707 18.1326 4.27201 17.7582 4.27201 17.7582C3.18527 17.0021 4.35393 17.0176 4.35393 17.0176C5.5567 17.1034 6.19003 18.273 6.19003 18.273C7.25832 20.1355 8.99208 19.597 9.67558 19.2857C9.78308 18.4986 10.0935 17.9607 10.436 17.6567C7.77561 17.3487 4.97892 16.3041 4.97892 11.6361C4.97892 10.306 5.44682 9.21928 6.21303 8.36613C6.08867 8.05909 5.67869 6.82023 6.32907 5.14218C6.32907 5.14218 7.33489 4.81476 9.62381 6.39093C10.5792 6.12101 11.6039 5.98564 12.6218 5.981C13.6397 5.98564 14.6652 6.12101 15.6224 6.39093C17.9086 4.81476 18.913 5.14218 18.913 5.14218C19.565 6.82023 19.1548 8.05909 19.0304 8.36613C19.7984 9.21928 20.2632 10.306 20.2632 11.6361C20.2632 16.3152 17.4611 17.3454 14.7939 17.647C15.2235 18.0251 15.6064 18.7665 15.6064 19.9031C15.6064 21.5329 15.5925 22.8448 15.5925 23.2462C15.5925 23.5704 15.8081 23.9503 16.4152 23.8307C21.1718 22.218 24.5994 17.6531 24.5994 12.2724C24.5994 5.54404 19.2367 0.0900879 12.6218 0.0900879Z" fill="white" fill-opacity="0.3"/>
<path d="M5.18064 17.5813C5.15426 17.642 5.06064 17.66 4.97535 17.6184C4.88848 17.5787 4.83969 17.4962 4.86785 17.4354C4.89364 17.3731 4.98745 17.356 5.07413 17.3973C5.16121 17.4373 5.21079 17.5206 5.18064 17.5813Z" fill="white" fill-opacity="0.3"/>
<path d="M5.66599 18.1315C5.60886 18.1854 5.49719 18.1603 5.42143 18.0752C5.34308 17.9903 5.3284 17.8767 5.38632 17.822C5.44523 17.7682 5.55352 17.7934 5.63207 17.8783C5.71042 17.9643 5.72569 18.077 5.66599 18.1315Z" fill="white" fill-opacity="0.3"/>
<path d="M6.13784 18.8332C6.06446 18.8851 5.94446 18.8364 5.87027 18.7281C5.79689 18.6198 5.79689 18.4899 5.87186 18.4378C5.94624 18.3858 6.06446 18.4326 6.13963 18.5401C6.21282 18.65 6.21282 18.7802 6.13784 18.8332Z" fill="white" fill-opacity="0.3"/>
<path d="M6.78498 19.511C6.71933 19.5846 6.57949 19.5648 6.47714 19.4644C6.37242 19.3661 6.34326 19.2267 6.40911 19.1531C6.47556 19.0792 6.61618 19.1 6.71933 19.1997C6.82326 19.2977 6.85499 19.4381 6.78498 19.511Z" fill="white" fill-opacity="0.3"/>
<path d="M7.67779 19.9048C7.64883 20.0002 7.51415 20.0435 7.37848 20.003C7.24301 19.9612 7.15435 19.8495 7.18172 19.753C7.20989 19.657 7.34516 19.6118 7.48182 19.6552C7.61709 19.6968 7.70595 19.8077 7.67779 19.9048Z" fill="white" fill-opacity="0.3"/>
<path d="M8.65778 19.9776C8.66115 20.0781 8.54611 20.1614 8.40369 20.163C8.26049 20.1664 8.14465 20.0851 8.14307 19.9863C8.14307 19.8848 8.25553 19.8023 8.39874 19.7999C8.54115 19.7971 8.65778 19.8777 8.65778 19.9776Z" fill="white" fill-opacity="0.3"/>
<path d="M9.57026 19.8197C9.58731 19.9178 9.48834 20.0184 9.34692 20.0451C9.20788 20.0711 9.07915 20.0106 9.0615 19.9133C9.04424 19.8129 9.145 19.7122 9.28384 19.6862C9.42546 19.6611 9.55221 19.7201 9.57026 19.8197Z" fill="white" fill-opacity="0.3"/>
</svg>
