<svg width="25" height="24" viewBox="0 0 25 24" fill="none" xmlns="http://www.w3.org/2000/svg">
<path fill-rule="evenodd" clip-rule="evenodd" d="M12.6001 0C5.97268 0 0.600098 5.37258 0.600098 12C0.600098 18.6274 5.97268 24 12.6001 24C19.2275 24 24.6001 18.6274 24.6001 12C24.6001 5.37258 19.2275 0 12.6001 0ZM9.96174 5.63867C10.6444 5.6076 10.8625 5.6 12.6007 5.6H12.5987C14.3374 5.6 14.5547 5.6076 15.2374 5.63867C15.9187 5.66987 16.3841 5.77774 16.7921 5.936C17.2134 6.09934 17.5694 6.31801 17.9254 6.67401C18.2814 7.02975 18.5001 7.38682 18.6641 7.80776C18.8214 8.21469 18.9294 8.67976 18.9614 9.36111C18.9921 10.0438 19.0001 10.2619 19.0001 12.0001C19.0001 13.7382 18.9921 13.9558 18.9614 14.6385C18.9294 15.3196 18.8214 15.7848 18.6641 16.1918C18.5001 16.6126 18.2814 16.9697 17.9254 17.3255C17.5698 17.6815 17.2133 17.9007 16.7925 18.0641C16.3853 18.2224 15.9197 18.3303 15.2383 18.3615C14.5557 18.3925 14.3382 18.4001 12.5999 18.4001C10.8619 18.4001 10.6439 18.3925 9.9612 18.3615C9.28 18.3303 8.81479 18.2224 8.40759 18.0641C7.98692 17.9007 7.62985 17.6815 7.27424 17.3255C6.91837 16.9697 6.6997 16.6126 6.5361 16.1917C6.37797 15.7848 6.2701 15.3197 6.23876 14.6384C6.20783 13.9557 6.2001 13.7382 6.2001 12.0001C6.2001 10.2619 6.2081 10.0436 6.23863 9.36097C6.2693 8.6799 6.3773 8.21469 6.53597 7.80762C6.69997 7.38682 6.91864 7.02975 7.27464 6.67401C7.63038 6.31814 7.98745 6.09947 8.40839 5.936C8.81532 5.77774 9.2804 5.66987 9.96174 5.63867Z" fill="white" fill-opacity="0.3"/>
<path fill-rule="evenodd" clip-rule="evenodd" d="M12.0266 6.75331C12.1381 6.75313 12.258 6.75319 12.3874 6.75325L12.6007 6.75331C14.3095 6.75331 14.5121 6.75944 15.1869 6.79011C15.8109 6.81864 16.1496 6.92291 16.3752 7.01051C16.6738 7.12651 16.8868 7.26518 17.1106 7.48918C17.3346 7.71319 17.4733 7.92652 17.5896 8.22519C17.6772 8.45053 17.7816 8.7892 17.81 9.4132C17.8406 10.0879 17.8473 10.2905 17.8473 11.9986C17.8473 13.7066 17.8406 13.9093 17.81 14.5839C17.7814 15.2079 17.6772 15.5466 17.5896 15.7719C17.4736 16.0706 17.3346 16.2833 17.1106 16.5071C16.8866 16.7311 16.674 16.8698 16.3752 16.9858C16.1498 17.0738 15.8109 17.1778 15.1869 17.2064C14.5122 17.237 14.3095 17.2437 12.6007 17.2437C10.8918 17.2437 10.6892 17.237 10.0146 17.2064C9.39056 17.1776 9.05189 17.0733 8.82615 16.9857C8.52748 16.8697 8.31415 16.731 8.09014 16.507C7.86614 16.283 7.72747 16.0702 7.61121 15.7714C7.52361 15.5461 7.4192 15.2074 7.3908 14.5834C7.36014 13.9087 7.354 13.706 7.354 11.997C7.354 10.2879 7.36014 10.0863 7.3908 9.4116C7.41934 8.7876 7.52361 8.44893 7.61121 8.22332C7.72721 7.92465 7.86614 7.71132 8.09014 7.48732C8.31415 7.26331 8.52748 7.12465 8.82615 7.00838C9.05176 6.92038 9.39056 6.81638 10.0146 6.78771C10.605 6.76104 10.8338 6.75304 12.0266 6.75171V6.75331ZM16.017 7.81599C15.593 7.81599 15.249 8.15959 15.249 8.58373C15.249 9.00773 15.593 9.35174 16.017 9.35174C16.441 9.35174 16.785 9.00773 16.785 8.58373C16.785 8.15972 16.441 7.81572 16.017 7.81572V7.81599ZM9.31402 12C9.31402 10.185 10.7856 8.7134 12.6006 8.71333C14.4157 8.71333 15.8869 10.1849 15.8869 12C15.8869 13.8151 14.4158 15.2861 12.6007 15.2861C10.7856 15.2861 9.31402 13.8151 9.31402 12Z" fill="white" fill-opacity="0.3"/>
<path d="M12.6006 9.8667C13.7788 9.8667 14.734 10.8218 14.734 12.0001C14.734 13.1782 13.7788 14.1334 12.6006 14.1334C11.4224 14.1334 10.4673 13.1782 10.4673 12.0001C10.4673 10.8218 11.4224 9.8667 12.6006 9.8667Z" fill="white" fill-opacity="0.3"/>
</svg>
