<svg width="67" height="22" viewBox="0 0 67 22" fill="none" xmlns="http://www.w3.org/2000/svg">
<path d="M0 14.168V5.67195C0 2.98395 1.344 1.63995 4.032 1.63995H9.504C12.192 1.63995 13.536 2.98395 13.536 5.67195V14.168C13.536 16.36 12.632 17.64 10.824 18.008L12.384 21.08L11.976 21.8H9L7.176 18.2H4.032C1.344 18.2 0 16.856 0 14.168ZM3.456 14.36C3.456 14.84 3.696 15.08 4.176 15.08H9.36C9.84 15.08 10.08 14.84 10.08 14.36V5.47995C10.08 4.99995 9.84 4.75995 9.36 4.75995H4.176C3.696 4.75995 3.456 4.99995 3.456 5.47995V14.36Z" fill="white"/>
<path d="M16.5602 3.43995V0.199951H20.0162V3.43995H16.5602ZM16.6322 18.2V5.52795H19.9442V18.2H16.6322Z" fill="white"/>
<path d="M23.1416 14.168V1.63995H26.5976V14.36C26.5976 14.84 26.8376 15.08 27.3176 15.08H32.0216C32.5016 15.08 32.7416 14.84 32.7416 14.36V1.63995H36.1976V14.168C36.1976 16.856 34.8536 18.2 32.1656 18.2H27.1736C24.4856 18.2 23.1416 16.856 23.1416 14.168Z" fill="white"/>
<path d="M38.9166 16.952V15.08H46.3566C46.8366 15.08 47.0766 14.84 47.0766 14.36V12.632C47.0766 12.168 46.8766 11.904 46.4766 11.84L41.7966 10.88C39.8766 10.496 38.9166 9.20795 38.9166 7.01595V5.67195C38.9166 2.98395 40.2606 1.63995 42.9486 1.63995H48.4446L50.0526 2.88795V4.75995H43.0926C42.6126 4.75995 42.3726 4.99995 42.3726 5.47995V7.03995C42.3726 7.48795 42.5726 7.75195 42.9726 7.83195L47.6526 8.76795C49.5726 9.15195 50.5326 10.44 50.5326 12.632V14.168C50.5326 16.856 49.1886 18.2 46.5006 18.2H40.5246L38.9166 16.952Z" fill="white"/>
<path d="M53.3859 18.2V1.63995H59.6739C64.1859 1.63995 66.4419 3.89595 66.4419 8.40795V11.432C66.4419 15.944 64.1859 18.2 59.6739 18.2H53.3859ZM56.8419 15.08H59.8659C61.9459 15.08 62.9859 14.04 62.9859 11.96V7.87995C62.9859 5.79995 61.9459 4.75995 59.8659 4.75995H56.8419V15.08Z" fill="white"/>
</svg>
