<svg width="48" height="11" viewBox="0 0 48 11" fill="none" xmlns="http://www.w3.org/2000/svg">
<path d="M21.4363 2.85438L21.2931 3.58303H21.2681C21.0767 3.15962 20.5291 2.59591 19.3606 2.59591C17.4531 2.59591 15.5215 4.0532 15.0928 6.3335C14.7117 8.33153 15.7129 10.0949 17.9541 10.0949C18.7889 10.0949 19.7435 9.76667 20.2195 9.08397H20.2445L20.1013 9.83641H22.1986L23.5102 2.83059H21.4363V2.85438ZM20.7688 6.3335C20.6256 7.01455 19.9823 8.14362 18.6466 8.14362C17.3591 8.14362 17.0969 7.01537 17.2151 6.37945C17.3582 5.58024 18.0973 4.56932 19.3124 4.56932C20.505 4.56932 20.9103 5.50967 20.7671 6.3335H20.7688ZM24.727 2.85438H26.7061L26.5629 3.58303H26.5879C26.85 3.25481 27.3269 2.59591 28.567 2.59591L28.1858 4.71292C27.1846 4.73754 26.4381 4.92462 26.2783 6.0061L25.5392 9.86267H23.3754L24.727 2.85438ZM29.9968 0.103909H32.144L31.1428 5.39315H31.1902L33.6454 2.85438H36.1488L32.8822 5.93389L34.7656 9.86021H32.357L30.9738 6.47463H30.9572L30.313 9.86021H28.1908L29.9968 0.103909ZM39.5676 2.59591C37.4204 2.59591 35.4896 4.42983 35.1318 6.38109C34.7506 8.44887 36.1571 10.0957 38.2078 10.0957C38.9706 10.0922 39.7162 9.87171 40.355 9.4606C41.0224 9.061 41.6424 8.44969 42.1443 7.67427H39.9746C39.6168 8.05008 39.2114 8.33235 38.5432 8.33235C37.7084 8.33235 37.1117 7.83838 37.1283 7.01619H42.4547C42.5263 6.85208 42.5504 6.73392 42.5979 6.47463C43.0032 4.31167 41.7407 2.59591 39.5685 2.59591H39.5676ZM37.4204 5.5827C37.5869 5.15929 38.1595 4.3847 39.2805 4.3847C40.3774 4.3847 40.6637 5.16012 40.6637 5.5827H37.4204ZM11.9469 9.86021H14.0692V0.0957031H12.2565L8.48895 5.6426H8.46398V0.0957031H6.65217L0 9.86021H2.57498L6.31844 4.31331H6.34341V9.86021H8.17935L11.8995 4.31331H11.9469V9.86021ZM48 2.85438H46.6651L47.0462 0.786603H45.1862L45.043 1.58582C44.8766 2.50237 44.304 2.78381 43.5167 2.8552H43.4917L43.1588 4.43065H44.2074L43.1821 9.84626H45.3043L46.3297 4.43065H47.6887L48 2.85438Z" fill="white"/>
</svg>
