<svg width="65" height="64" viewBox="0 0 65 64" fill="none" xmlns="http://www.w3.org/2000/svg">
<rect x="0.5" width="64" height="64" rx="16" fill="#DA8A12"/>
<path d="M29.8251 35.0125L28.7376 36.2375C27.8998 37.0738 26.8329 37.643 25.6718 37.8732C24.5106 38.1034 23.3072 37.9842 22.2138 37.5307C21.1203 37.0772 20.1858 36.3098 19.5284 35.3253C18.8709 34.3409 18.52 33.1837 18.52 32C18.52 30.8162 18.8709 29.659 19.5284 28.6746C20.1858 27.6902 21.1203 26.9227 22.2138 26.4692C23.3072 26.0157 24.5106 25.8966 25.6718 26.1267C26.8329 26.3569 27.8998 26.9261 28.7376 27.7625L36.2626 36.2375C37.1004 37.0738 38.1673 37.643 39.3285 37.8732C40.4896 38.1034 41.693 37.9842 42.7865 37.5307C43.8799 37.0772 44.8144 36.3098 45.4719 35.3253C46.1293 34.3409 46.4802 33.1837 46.4802 32C46.4802 30.8162 46.1293 29.659 45.4719 28.6746C44.8144 27.6902 43.8799 26.9227 42.7865 26.4692C41.693 26.0157 40.4896 25.8966 39.3285 26.1267C38.1673 26.3569 37.1004 26.9261 36.2626 27.7625L35.1751 28.9875" stroke="white" stroke-width="2" stroke-linecap="round" stroke-linejoin="round"/>
</svg>
