<svg width="25" height="24" viewBox="0 0 25 24" fill="none" xmlns="http://www.w3.org/2000/svg">
<path fill-rule="evenodd" clip-rule="evenodd" d="M0.600098 12C0.600098 18.6274 5.97268 24 12.6001 24C19.2275 24 24.6001 18.6274 24.6001 12C24.6001 5.37258 19.2275 0 12.6001 0C5.97268 0 0.600098 5.37258 0.600098 12ZM10.4001 17.5L10.6043 14.4411L10.6041 14.441L16.1686 9.4195C16.4128 9.20276 16.1152 9.09707 15.791 9.29366L8.92374 13.6262L5.95744 12.7003C5.31685 12.5042 5.31225 12.064 6.10126 11.7475L17.6603 7.29043C18.1882 7.05075 18.6977 7.41723 18.4962 8.22525L16.5277 17.5015C16.3902 18.1607 15.9919 18.3184 15.4401 18.0139L12.4415 15.7985L11.0001 17.2C10.9956 17.2044 10.991 17.2088 10.9865 17.2132C10.8253 17.3701 10.692 17.5 10.4001 17.5Z" fill="white" fill-opacity="0.3"/>
</svg>
