<svg width="25" height="24" viewBox="0 0 25 24" fill="none" xmlns="http://www.w3.org/2000/svg">
<path fill-rule="evenodd" clip-rule="evenodd" d="M12.6001 0C5.97268 0 0.600098 5.37258 0.600098 12C0.600098 18.6274 5.97268 24 12.6001 24C19.2275 24 24.6001 18.6274 24.6001 12C24.6001 5.37258 19.2275 0 12.6001 0ZM12.2659 10.169L12.2407 9.75375C12.1652 8.67755 12.8283 7.69456 13.8775 7.31323C14.2636 7.17765 14.9183 7.1607 15.3464 7.27934C15.5143 7.33018 15.8332 7.49966 16.0599 7.65219L16.4712 7.93184L16.9244 7.78778C17.1762 7.71151 17.512 7.5844 17.6631 7.49966C17.8058 7.42339 17.9317 7.38102 17.9317 7.40645C17.9317 7.5505 17.6211 8.042 17.3609 8.31317C17.0084 8.6945 17.1091 8.72839 17.8225 8.47417C18.2506 8.33011 18.259 8.33011 18.1751 8.49112C18.1247 8.57586 17.8645 8.87245 17.5875 9.14362C17.1175 9.60969 17.0923 9.66054 17.0923 10.0503C17.0923 10.652 16.8069 11.9062 16.5215 12.5925C15.9927 13.8806 14.8596 15.211 13.7264 15.8805C12.1316 16.8211 10.008 17.0584 8.22009 16.5075C7.62414 16.3211 6.6001 15.8466 6.6001 15.7618C6.6001 15.7364 6.91067 15.7025 7.28839 15.694C8.0774 15.6771 8.86641 15.4568 9.53791 15.067L9.99117 14.7958L9.47076 14.6178C8.73211 14.3636 8.069 13.7789 7.90113 13.2281C7.85077 13.0501 7.86755 13.0417 8.3376 13.0417L8.82444 13.0332L8.41315 12.8383C7.92631 12.5925 7.48144 12.1773 7.2632 11.7536C7.10372 11.4486 6.90227 10.6774 6.96103 10.6181C6.97782 10.5927 7.15409 10.6435 7.35554 10.7113C7.9347 10.9232 8.01025 10.8723 7.6745 10.5164C7.04497 9.87239 6.85191 8.91482 7.15409 8.0081L7.29678 7.60135L7.85077 8.15216C8.98392 9.26226 10.3185 9.92323 11.8462 10.1181L12.2659 10.169Z" fill="white" fill-opacity="0.3"/>
</svg>
