<svg width="18" height="12" viewBox="0 0 18 12" fill="none" xmlns="http://www.w3.org/2000/svg">
<g clip-path="url(#clip0_488_3568)">
<mask id="mask0_488_3568" style="mask-type:alpha" maskUnits="userSpaceOnUse" x="0" y="0" width="18" height="12">
<path d="M15.8001 0H2.2001C1.31644 0 0.600098 0.716344 0.600098 1.6V10.4C0.600098 11.2837 1.31644 12 2.2001 12H15.8001C16.6838 12 17.4001 11.2837 17.4001 10.4V1.6C17.4001 0.716344 16.6838 0 15.8001 0Z" fill="white"/>
</mask>
<g mask="url(#mask0_488_3568)">
<path d="M15.8001 0H2.2001C1.31644 0 0.600098 0.716344 0.600098 1.6V10.4C0.600098 11.2837 1.31644 12 2.2001 12H15.8001C16.6838 12 17.4001 11.2837 17.4001 10.4V1.6C17.4001 0.716344 16.6838 0 15.8001 0Z" fill="white"/>
<path fill-rule="evenodd" clip-rule="evenodd" d="M0.600098 0H7.8001V5.6H0.600098V0Z" fill="#444379"/>
<path fill-rule="evenodd" clip-rule="evenodd" d="M1.3999 0.800049V1.60005H2.1999V0.800049H1.3999ZM2.9999 0.800049V1.60005H3.7999V0.800049H2.9999ZM4.5999 0.800049V1.60005H5.3999V0.800049H4.5999ZM6.1999 0.800049V1.60005H6.9999V0.800049H6.1999ZM5.3999 1.60005V2.40005H6.1999V1.60005H5.3999ZM3.7999 1.60005V2.40005H4.5999V1.60005H3.7999ZM2.1999 1.60005V2.40005H2.9999V1.60005H2.1999ZM1.3999 2.40005V3.20005H2.1999V2.40005H1.3999ZM2.9999 2.40005V3.20005H3.7999V2.40005H2.9999ZM4.5999 2.40005V3.20005H5.3999V2.40005H4.5999ZM6.1999 2.40005V3.20005H6.9999V2.40005H6.1999ZM1.3999 4.00005V4.80005H2.1999V4.00005H1.3999ZM2.9999 4.00005V4.80005H3.7999V4.00005H2.9999ZM4.5999 4.00005V4.80005H5.3999V4.00005H4.5999ZM6.1999 4.00005V4.80005H6.9999V4.00005H6.1999ZM5.3999 3.20005V4.00005H6.1999V3.20005H5.3999ZM3.7999 3.20005V4.00005H4.5999V3.20005H3.7999ZM2.1999 3.20005V4.00005H2.9999V3.20005H2.1999Z" fill="#A7B6E7"/>
<path fill-rule="evenodd" clip-rule="evenodd" d="M7.8001 0V0.8H17.4001V0H7.8001ZM7.8001 1.6V2.4H17.4001V1.6H7.8001ZM7.8001 3.2V4H17.4001V3.2H7.8001ZM7.8001 4.8V5.6H17.4001V4.8H7.8001ZM0.600098 6.4V7.2H17.4001V6.4H0.600098ZM0.600098 8V8.8H17.4001V8H0.600098ZM0.600098 9.6V10.4H17.4001V9.6H0.600098ZM0.600098 11.2V12H17.4001V11.2H0.600098Z" fill="#ED4C49"/>
<path d="M15.8 0.399902H2.2C1.53726 0.399902 1 0.937161 1 1.5999V10.3999C1 11.0626 1.53726 11.5999 2.2 11.5999H15.8C16.4627 11.5999 17 11.0626 17 10.3999V1.5999C17 0.937161 16.4627 0.399902 15.8 0.399902Z" stroke="black" stroke-opacity="0.1"/>
</g>
</g>
<defs>
<clipPath id="clip0_488_3568">
<rect width="16.8" height="12" fill="white" transform="translate(0.600098)"/>
</clipPath>
</defs>
</svg>
