<svg width="32" height="32" viewBox="0 0 32 32" fill="none" xmlns="http://www.w3.org/2000/svg">
<path d="M31.9747 16.0307C31.9887 7.21113 24.8479 0.0476817 16.0253 0.0307022C7.20268 0.0137226 0.0392357 7.14964 0.0252761 15.9692C0.0113165 24.7888 7.15213 31.9522 15.9747 31.9692C24.7973 31.9862 31.9608 24.8503 31.9747 16.0307Z" fill="#3574B9"/>
<path d="M13.4122 25.9743C13.4122 26.3347 13.1775 26.4608 12.8253 26.4608C10.6927 25.7548 8.83126 24.3575 7.51141 22.4719C6.19155 20.5863 5.48201 18.3106 5.48586 15.9753C5.48971 13.6401 6.20674 11.3669 7.53281 9.48606C8.85888 7.60521 10.7249 6.21462 12.8598 5.5163C13.2051 5.39738 13.4468 5.63882 13.4433 6.0064V6.87488C13.4459 6.9999 13.415 7.1232 13.354 7.23082C13.2929 7.33844 13.2043 7.42611 13.0981 7.4839C11.4188 8.11482 9.9664 9.27037 8.93857 10.7933C7.91072 12.3163 7.35727 14.1328 7.3535 15.9957C7.34972 17.8586 7.89581 19.6776 8.91748 21.2051C9.93915 22.7326 11.3868 23.8945 13.0635 24.5328C13.17 24.5903 13.2589 24.6779 13.32 24.7856C13.381 24.8933 13.4118 25.0167 13.4088 25.1418L13.4122 25.9743Z" fill="white"/>
<path d="M16.9199 22.9472C16.916 23.0766 16.8661 23.1999 16.78 23.2931C16.6938 23.3863 16.5776 23.4429 16.4539 23.4517H15.5182C15.3967 23.4432 15.2824 23.3887 15.1966 23.2985C15.1108 23.2083 15.0594 23.0885 15.0521 22.9616V21.5202C13.1809 21.2715 12.2487 20.176 11.9 18.5904C11.9 18.3489 12.0209 18.1039 12.2453 18.1039H13.2983C13.5296 18.1039 13.6435 18.2264 13.7644 18.4643C13.9957 19.3183 14.4549 20.0499 15.9809 20.0535C17.1478 20.0535 17.9661 19.4481 17.9695 18.4751C17.973 17.5021 17.5034 17.1345 15.8704 16.8858C13.4157 16.5255 12.2487 15.7831 12.2522 13.7146C12.2522 12.1326 13.426 10.9146 15.0625 10.6767V9.18482C15.0699 9.05831 15.1213 8.93898 15.2072 8.84936C15.2931 8.75974 15.4074 8.70601 15.5286 8.69833H16.4642C16.5854 8.70601 16.6997 8.75974 16.7856 8.84936C16.8715 8.93898 16.9229 9.05831 16.9303 9.18482V10.6479C18.332 10.893 19.2642 11.747 19.4955 13.0876C19.4955 13.329 19.3781 13.5741 19.1503 13.5741H18.2215C17.9868 13.5741 17.8763 13.4516 17.7555 13.2137C17.5241 12.3596 16.9407 11.9921 15.8877 11.9921C14.7207 11.9921 14.1338 12.5975 14.1338 13.4335C14.1338 14.2696 14.479 14.7741 16.2329 15.0228C18.6842 15.3831 19.8511 16.1255 19.8477 18.194C19.8477 19.776 18.6773 21.1129 16.9234 21.4769L16.9199 22.9472Z" fill="white"/>
<path d="M18.5495 25.9959C18.5495 26.3599 18.7877 26.6049 19.133 26.4824C21.2677 25.783 23.1337 24.3926 24.4608 22.5124C25.7879 20.6322 26.5071 18.3599 26.5144 16.0246C26.5213 11.156 23.3761 7.00821 19.1744 5.53791C18.8222 5.53791 18.5875 5.66404 18.5875 6.02441V6.87848C18.5848 7.0035 18.6158 7.12679 18.6768 7.23442C18.7378 7.34204 18.8265 7.42971 18.9327 7.4875C20.6093 8.12619 22.0567 9.28845 23.0781 10.8162C24.0995 12.3439 24.6452 14.1629 24.641 16.0259C24.6369 17.8888 24.0831 19.7051 23.0549 21.2279C22.0267 22.7506 20.5742 23.9059 18.8947 24.5364C18.7885 24.5933 18.6998 24.6802 18.6387 24.7873C18.5776 24.8944 18.5467 25.0173 18.5495 25.1418V25.9959Z" fill="white"/>
</svg>
