<svg width="33" height="33" viewBox="0 0 33 33" fill="none" xmlns="http://www.w3.org/2000/svg">
<path d="M16.5464 32.8663C25.3832 32.8663 32.5464 25.7031 32.5464 16.8663C32.5464 8.02953 25.3832 0.866333 16.5464 0.866333C7.70959 0.866333 0.546387 8.02953 0.546387 16.8663C0.546387 25.7031 7.70959 32.8663 16.5464 32.8663Z" fill="#009393"/>
<path fill-rule="evenodd" clip-rule="evenodd" d="M24.3269 9.552V12.4692H18.4855V14.4917C22.5882 14.7079 25.6662 15.5956 25.689 16.6596L25.6889 18.8778C25.666 19.9418 22.5882 20.8294 18.4855 21.0456V26.0092H14.6068V21.0456C10.5041 20.8294 7.4261 19.9418 7.40332 18.8778L7.40339 16.6596C7.42625 15.5956 10.5041 14.7079 14.6068 14.4917V12.4692H8.76535V9.552H24.3269ZM16.5462 19.5217C20.9243 19.5217 24.5838 18.7711 25.4794 17.7687C24.7199 16.9186 21.9729 16.2496 18.4855 16.0659V18.1835C17.8605 18.2164 17.2116 18.2338 16.5462 18.2338C15.8807 18.2338 15.2318 18.2164 14.6068 18.1835V16.0659C11.1194 16.2496 8.37237 16.9186 7.61293 17.7687C8.50848 18.7711 12.1679 19.5217 16.5462 19.5217Z" fill="white"/>
</svg>
