<svg width="44" height="15" viewBox="0 0 44 15" fill="none" xmlns="http://www.w3.org/2000/svg">
<path d="M35.5483 10.8331C34.7844 12.6224 32.9381 14.07 30.8287 14.07C28.4541 14.07 26.9521 12.2017 27.4003 9.85951C27.8218 7.54486 29.9589 5.67568 32.3316 5.67568C34.4144 5.67568 35.829 7.06998 35.8658 8.98233H33.4913C33.333 8.42939 32.9906 7.87736 31.9883 7.87736C30.8811 7.825 29.958 8.74535 29.7472 9.85216C29.5355 10.9838 30.1154 11.8518 31.2502 11.8518C32.2258 11.8518 32.8148 11.2988 33.1489 10.7992H35.5483V10.8331ZM16.0365 0.0957031L11.4752 2.88523H12.7673L8.62753 9.09439H8.57507V2.88523H6.54382L2.40216 9.09531H2.37455V2.88615H0V13.8165H2.05702L6.19684 7.60732H6.22445V13.8165H8.25478L15.5855 2.88615H16.7452L16.0365 0.0957031ZM20.5187 13.8064H18.1994L18.3577 12.9641H18.3301C17.776 13.7265 16.747 14.0957 15.8248 14.0957C13.3196 14.0957 12.2391 12.1209 12.6606 9.88523C13.1355 7.33176 15.2974 5.7014 17.3802 5.7014C18.6724 5.7014 19.279 6.33334 19.4897 6.80637H19.5173L19.6756 5.99073H21.995L20.5187 13.8064ZM16.5629 11.8867C18.0134 11.8867 18.7516 10.6237 18.9099 9.86043C19.0682 8.91436 18.62 7.88563 17.3011 7.88563C15.9573 7.88563 15.1382 9.01724 14.9818 9.91187C14.8234 10.6485 15.1401 11.8867 16.5648 11.8867H16.5629ZM27.8743 5.96593H26.398L26.8195 3.65127H24.7625L24.6042 4.54591C24.4201 5.57189 23.7869 5.88694 22.9162 5.96685H22.8886L22.5463 7.7304H23.7059L22.572 13.7926H24.919L26.0529 7.7304H27.5558L27.8743 5.96593ZM37.7627 2.88707H40.1096L39.3973 6.78157H39.4249C39.9256 6.04492 40.6122 5.6766 41.6402 5.6766C42.3784 5.6766 43.2232 5.96593 43.619 6.54459C44.1197 7.30696 44.0672 7.99217 43.8031 9.41311L42.9858 13.7816H40.6389L41.4304 9.51966C41.5095 9.15226 41.7203 7.86174 40.4824 7.86174C39.1635 7.86174 38.9527 9.04663 38.8736 9.44159L38.0563 13.7834H35.737L37.7627 2.88707Z" fill="#00B742"/>
</svg>
