<svg width="25" height="24" viewBox="0 0 25 24" fill="none" xmlns="http://www.w3.org/2000/svg">
<path fill-rule="evenodd" clip-rule="evenodd" d="M0.600098 12C0.600098 18.6274 5.97268 24 12.6001 24C19.2275 24 24.6001 18.6274 24.6001 12C24.6001 5.37258 19.2275 0 12.6001 0C5.97268 0 0.600098 5.37258 0.600098 12ZM16.073 11.9601L16.078 11.9616C16.8939 12.2174 17.8021 12.8361 17.8001 13.9268C17.8001 15.7294 15.2287 18 11.3628 18C8.41478 18 5.4001 16.5544 5.4001 14.1787C5.4001 12.9353 6.17878 11.4976 7.51841 10.1431C9.30918 8.3326 11.3981 7.50765 12.1826 8.30286C12.5278 8.65386 12.5612 9.25869 12.3395 9.9825C12.2219 10.3454 12.6769 10.1451 12.6769 10.1451C14.1244 9.53235 15.3876 9.49666 15.8485 10.163C16.0956 10.5199 16.0721 11.0177 15.8446 11.5947C15.7415 11.8582 15.8756 11.8994 16.073 11.9601ZM18.7879 7.61925C17.8132 6.60262 16.3758 6.21561 15.0489 6.48132C14.7418 6.54293 14.5473 6.8279 14.6128 7.11478C14.6783 7.4036 14.9793 7.58651 15.2865 7.5249C16.2304 7.33621 17.2522 7.61154 17.9443 8.33358C18.6364 9.05561 18.8248 10.0395 18.5278 10.9021C18.4316 11.1832 18.5954 11.4836 18.8944 11.5741C19.1933 11.6646 19.5128 11.5105 19.609 11.2313V11.2294C20.0267 10.0183 19.7626 8.63395 18.7879 7.61925ZM15.4017 8.44228C16.0707 8.30505 16.7969 8.50283 17.2896 9.0215C17.7823 9.54016 17.9139 10.2465 17.7037 10.8661C17.6166 11.1204 17.3321 11.2576 17.0645 11.1769C16.7969 11.0941 16.6525 10.8217 16.7375 10.5694C16.8415 10.2667 16.7757 9.92159 16.5357 9.66731C16.2958 9.41504 15.939 9.31816 15.612 9.38476C15.3402 9.44127 15.0705 9.27578 15.011 9.01544C14.9537 8.7551 15.1278 8.49677 15.4017 8.44228Z" fill="white" fill-opacity="0.3"/>
<path fill-rule="evenodd" clip-rule="evenodd" d="M6.83385 14.7459C6.98684 16.3065 9.01886 17.3833 11.3725 17.1473C13.7243 16.9133 15.5091 15.4558 15.3542 13.8932C15.2032 12.3325 13.1711 11.2557 10.8175 11.4917C8.46574 11.7277 6.68086 13.1832 6.83385 14.7459ZM8.80753 14.1527C9.32552 13.15 10.6727 12.5819 11.8653 12.8789C13.0997 13.1839 13.7305 14.2942 13.2251 15.3747C12.7133 16.477 11.2429 17.0671 9.99389 16.6823C8.79082 16.3116 8.2791 15.1753 8.80753 14.1527Z" fill="white" fill-opacity="0.3"/>
<path d="M11.7548 14.5134C11.6671 14.6569 11.4728 14.7247 11.3224 14.6649C11.172 14.6071 11.1261 14.4456 11.2117 14.3061C11.2995 14.1665 11.4853 14.0987 11.6336 14.1546C11.784 14.2064 11.8383 14.3679 11.7548 14.5134Z" fill="white" fill-opacity="0.3"/>
<path d="M10.9547 15.4902C10.7125 15.859 10.1924 16.0205 9.8018 15.851C9.41748 15.6836 9.30261 15.255 9.54489 14.8942C9.78509 14.5353 10.2864 14.3759 10.6749 14.5314C11.0675 14.6928 11.1928 15.1174 10.9547 15.4902Z" fill="white" fill-opacity="0.3"/>
</svg>
