<svg width="32" height="13" viewBox="0 0 32 13" fill="none" xmlns="http://www.w3.org/2000/svg">
<g clip-path="url(#clip0_525_2009)">
<path d="M31.3745 0.396973C31.6188 0.447182 31.7898 0.597806 31.7898 0.848852C31.7898 0.924166 31.7654 1.04969 31.7409 1.15011C31.5699 1.87814 30.9348 4.48902 30.6906 6.22124L30.4463 5.97019L31.228 0.648019L31.3745 0.396973Z" fill="#B37EF3"/>
<path d="M15.5943 1.125C15.2767 1.20031 14.9347 1.20031 14.6416 1.125L15.1546 1.6522L15.5943 1.125Z" fill="#B37EF3"/>
<path d="M10.5869 1.125C10.9045 1.20031 11.2465 1.20031 11.5396 1.125L11.0266 1.6522L10.5869 1.125Z" fill="#B37EF3"/>
<path d="M7.7532 1.1001C8.48602 3.03315 9.65853 5.92018 10.2448 7.04989L9.38983 6.77374L7.26465 1.32604L7.7532 1.1001Z" fill="#B37EF3"/>
<path d="M7.06934 1.1001C7.31361 1.17541 7.50905 1.17541 7.7289 1.1001L7.24035 1.40136L7.06934 1.1001Z" fill="#B37EF3"/>
<path d="M7.41129 1.32617L9.58534 6.77387C9.4632 6.9245 9.38991 6.99982 9.26777 7.05003C8.63266 5.39312 7.97313 3.73622 7.38687 2.10442L7.09375 1.60232L7.41129 1.32617Z" fill="#B37EF3"/>
<path d="M5.55454 7.05003L4.91943 6.82408L7.16675 1.40149L7.41102 1.32617V2.12952C7.06904 3.15881 6.18966 5.44333 5.55454 7.05003Z" fill="#B37EF3"/>
<path d="M5.01709 0.321777L5.23691 0.823869L5.77434 0.572823L5.99419 0.346883C5.6522 0.397093 5.33465 0.397091 5.01709 0.321777Z" fill="#B37EF3"/>
<path d="M3.50277 4.63977L3.13636 4.7904L2.9165 4.36362L5.21269 0.59793L5.3837 0.547717C5.60355 0.497508 5.84782 0.4473 6.01881 0.321777C5.62797 0.823869 4.30888 3.18371 3.50277 4.63977Z" fill="#B37EF3"/>
<path d="M3.01429 4.58956L3.112 4.48914L5.38377 0.547717L5.04178 0.321777C4.77308 0.848974 3.74712 2.53099 3.112 3.63559L2.79443 4.2381L3.01429 4.58956Z" fill="#B37EF3"/>
<path d="M1.18239 0.321777C1.69537 1.22554 2.45262 2.53099 3.11217 3.63559V4.48914L2.96561 4.63977L0.718262 0.522619L1.18239 0.321777Z" fill="#B37EF3"/>
<path d="M0.815758 0.572823L1.18217 0.321777C0.79133 0.397091 0.620332 0.422196 0.229492 0.321777L0.376081 0.497513L0.815758 0.572823Z" fill="#B37EF3"/>
<path d="M3.11195 4.48914L2.94097 4.74019L2.72111 4.63977C2.28142 3.88663 1.0356 1.5519 0.229492 0.321777C0.400485 0.4473 0.595928 0.497508 0.864631 0.547717L3.11195 4.48914Z" fill="#B37EF3"/>
<path d="M3.57606 7.82788L2.9165 7.50153L2.96538 4.68981L3.11194 4.46387L3.52719 4.6145L3.57606 7.82788Z" fill="#B37EF3"/>
<path d="M3.11208 7.60223L2.64795 7.82817L2.69682 4.63989L3.11208 4.48926V7.60223Z" fill="#B37EF3"/>
<path d="M4.60205 7.04989C5.40816 5.36788 6.28754 3.10847 7.06922 1.1001L7.41121 1.30093L5.21274 6.82394L4.77306 6.97457L4.60205 7.04989Z" fill="#B37EF3"/>
<path d="M9.56069 6.74874L10.2446 7.05C9.97594 6.97468 9.63398 6.94958 9.29199 7.05L9.41413 6.72363L9.56069 6.74874Z" fill="#B37EF3"/>
<path d="M5.9209 5.11685L6.38503 4.91602C7.069 4.94112 7.75297 4.94112 8.43694 4.91602L8.92549 5.14196L8.48578 5.24237H6.26289L5.9209 5.11685Z" fill="#B37EF3"/>
<path d="M6.23847 5.31781L5.9209 5.11697C6.92243 5.09187 7.92396 5.09187 8.92549 5.11697L8.60792 5.31781C7.80181 5.2927 7.02015 5.2927 6.23847 5.31781Z" fill="#B37EF3"/>
<path d="M11.5395 7.04969L10.8555 6.82374V1.50157L11.0509 1.40115L11.5395 1.125C11.4417 3.08316 11.4417 5.06642 11.5395 7.04969Z" fill="#B37EF3"/>
<path d="M11.051 6.77354V6.92416L10.5625 7.07479C10.6358 5.09152 10.6358 3.10826 10.5625 1.125L11.051 1.40115V6.77354Z" fill="#B37EF3"/>
<path d="M14.6172 7.04969L15.3012 6.82374V1.50157L15.1057 1.40115L14.6172 1.125C14.7149 3.08316 14.7149 5.06642 14.6172 7.04969Z" fill="#B37EF3"/>
<path d="M11.0508 4.06245L11.466 3.88672C12.5408 3.91182 13.6157 3.91182 14.6905 3.88672L15.1057 4.06245L14.5928 4.18797H11.466L11.0508 4.06245Z" fill="#B37EF3"/>
<path d="M18.9898 1.1001C17.1089 1.1001 16.1562 2.30512 16.1562 4.08754C16.1562 6.29675 17.573 7.07499 18.9654 7.07499C20.6021 7.07499 21.7746 6.12102 21.7746 4.08754C21.7746 2.15449 20.6753 1.1001 18.9898 1.1001ZM18.9165 1.40136C18.941 1.40136 18.941 1.40136 18.9654 1.40136C20.2112 1.40136 21.1395 2.28001 21.1395 4.11265C21.1395 5.94529 20.2112 6.82394 18.9654 6.82394C17.5975 6.82394 16.7914 5.81976 16.7914 4.13776C16.8158 2.1796 17.8173 1.42646 18.9165 1.40136Z" fill="#B37EF3"/>
<path d="M18.99 1.0249C16.9381 1.0249 15.8633 2.35544 15.8633 4.08766C15.8633 5.9705 17.0358 7.12532 18.9656 7.12532C21.0664 7.12532 22.0923 5.81988 22.0923 4.11277C22.0923 2.17971 20.8709 1.0249 18.99 1.0249ZM18.99 1.22574C20.6022 1.22574 21.677 2.22992 21.677 4.08766C21.677 6.02071 20.5534 6.94958 18.9656 6.94958C17.6465 6.94958 16.2541 6.22155 16.2541 4.08766C16.2541 2.40565 17.1579 1.22574 18.99 1.22574Z" fill="#B37EF3"/>
<path d="M26.0492 0.798828C24.1194 0.798828 22.8247 1.90343 22.8247 4.08753C22.8247 6.22142 24.0461 7.40134 26.0736 7.40134C27.6125 7.40134 29.2736 6.59799 29.2736 4.11264C29.2491 1.45155 27.4171 0.798828 26.0492 0.798828ZM26.0247 1.04987C27.5637 1.04987 28.6873 2.00385 28.6873 4.11264C28.6873 6.39716 27.3194 7.1503 26.0247 7.1503C24.6568 7.1503 23.3866 6.32184 23.3866 4.08753C23.411 1.7277 24.8034 1.04987 26.0247 1.04987Z" fill="#B37EF3"/>
<path d="M26.0249 0.67334C23.9975 0.67334 22.4341 1.85326 22.4341 4.06246C22.4341 5.86999 23.46 7.47669 26.0494 7.47669C28.2234 7.47669 29.6402 6.24656 29.6402 4.08757C29.6402 2.0792 28.3211 0.67334 26.0249 0.67334ZM26.0494 0.899287C27.3929 0.899287 29.1761 1.5269 29.1761 4.13778C29.1761 6.54782 27.5394 7.35117 26.0494 7.35117C24.0952 7.35117 22.8982 6.19636 22.8982 4.11267C22.8982 1.97878 24.1684 0.899287 26.0494 0.899287Z" fill="#B37EF3"/>
<path d="M29.811 7.40151C29.811 7.15046 29.9576 6.89941 30.2751 6.89941C30.5683 6.89941 30.7881 7.07514 30.7881 7.35129C30.7881 7.70276 30.5683 7.82828 30.3484 7.82828C30.0309 7.85338 29.811 7.70276 29.811 7.40151Z" fill="#B37EF3"/>
<path d="M30.2998 6.17124C30.5441 4.46412 30.6662 2.68169 30.8128 0.874162C30.8128 0.522698 31.0326 0.37207 31.2769 0.37207C31.3258 0.37207 31.3746 0.37207 31.3746 0.37207L31.3013 0.798844L30.4708 6.09592L30.2998 6.17124Z" fill="#B37EF3"/>
<path d="M2.64795 7.82803L3.11208 7.47656L3.57621 7.82803C3.57621 7.82803 3.33192 7.77782 3.11208 7.77782C2.91666 7.77782 2.64795 7.82803 2.64795 7.82803Z" fill="#B37EF3"/>
<path d="M4.60205 7.05008L5.23716 6.77393C5.33487 6.89945 5.43259 6.99987 5.55473 7.05008C5.33488 6.99987 4.96846 6.94966 4.60205 7.05008Z" fill="#B37EF3"/>
<path d="M10.5869 7.05008C10.9045 6.97476 11.222 6.97476 11.5396 7.05008L11.051 6.77393L10.5869 7.05008Z" fill="#B37EF3"/>
<path d="M11.466 4.28845L11.0508 4.0625C12.3943 4.0876 13.7378 4.0876 15.0813 4.0625L14.6661 4.28845C13.6157 4.26334 12.5408 4.28845 11.466 4.28845Z" fill="#B37EF3"/>
<path d="M15.106 6.77354V6.92416L15.5945 7.07479C15.5212 5.09152 15.5212 3.10826 15.5945 1.125L15.106 1.40115V6.77354Z" fill="#B37EF3"/>
<path d="M15.5943 7.04959C15.2767 6.97428 14.9592 6.97428 14.6416 7.04959L15.1302 6.77344L15.5943 7.04959Z" fill="#B37EF3"/>
<path d="M30.4952 5.99512L30.2754 6.19595C30.422 6.17085 30.5197 6.19595 30.6418 6.24616L30.4952 5.99512Z" fill="#B37EF3"/>
<path d="M31.2766 1.25053C31.533 1.25053 31.7407 1.05945 31.7407 0.823746C31.7407 0.588043 31.533 0.396973 31.2766 0.396973C31.0203 0.396973 30.8125 0.588043 30.8125 0.823746C30.8125 1.05945 31.0203 1.25053 31.2766 1.25053Z" fill="#B37EF3"/>
<path d="M10.4061 8.97803V9.17886H9.42901V9.88179H10.3084V10.0826H9.42901V11.137H8.8916V8.97803H10.4061Z" fill="#BBBBBB"/>
<path d="M10.8945 8.97803H11.4319V11.137H10.8945V8.97803Z" fill="#BBBBBB"/>
<path d="M11.9204 8.97803H12.2136L13.4349 10.3337V8.97803H13.7769V11.1872H13.5327L12.2136 9.68096V11.1872H11.8716V8.97803H11.9204Z" fill="#BBBBBB"/>
<path d="M15.3405 8.92773L16.3176 11.1369H15.7802L15.536 10.5344H14.7054L14.4123 11.1369H14.0703L15.0963 8.92773H15.3405ZM14.8031 10.3336H15.4383L15.1451 9.63066L14.8031 10.3336Z" fill="#BBBBBB"/>
<path d="M16.562 8.97803H16.904L18.1254 10.3337V8.97803H18.4674V11.1872H18.2231L16.904 9.68096V11.1872H16.562V8.97803Z" fill="#BBBBBB"/>
<path d="M19.493 10.0326C19.493 10.1832 19.493 10.2836 19.5418 10.384C19.5907 10.4845 19.6395 10.5849 19.6884 10.6351C19.7372 10.6853 19.835 10.7857 19.9327 10.7857C20.0304 10.7857 20.1281 10.8359 20.2258 10.8359C20.3235 10.8359 20.3724 10.8359 20.4212 10.7857C20.4701 10.7355 20.5678 10.7355 20.6166 10.6853C20.6655 10.6351 20.7143 10.5849 20.7632 10.5347C20.8121 10.4845 20.8609 10.4342 20.9098 10.3338L21.1052 10.4845C21.0563 10.5849 21.0075 10.6351 20.9586 10.6853C20.9098 10.7355 20.8121 10.8359 20.7143 10.8861C20.6166 10.9363 20.5678 10.9865 20.4701 11.0368C20.3724 11.087 20.2747 11.087 20.1769 11.087C19.9815 11.087 19.835 11.0368 19.6884 10.9865C19.5418 10.9363 19.3953 10.8359 19.2976 10.7355C19.1998 10.6351 19.1021 10.5347 19.0533 10.384C19.0044 10.2334 18.9556 10.0828 18.9556 9.93216C18.9556 9.78153 19.0044 9.6309 19.0533 9.48027C19.1021 9.32964 19.1998 9.22923 19.2976 9.12881C19.3953 9.02839 19.5418 8.92797 19.6884 8.87776C19.835 8.82755 19.9815 8.77734 20.1769 8.77734C20.2747 8.77734 20.4212 8.77734 20.5189 8.82755C20.6166 8.87776 20.7143 8.87776 20.8121 8.92797C20.9098 8.97818 20.9586 9.02839 21.0563 9.12881C21.1052 9.17902 21.154 9.27944 21.2517 9.37985L21.0563 9.53048C21.0075 9.48027 20.9586 9.43006 20.9098 9.32965C20.8609 9.27944 20.8121 9.22923 20.7632 9.17902C20.5189 9.27944 20.4701 9.22923 20.4212 9.22923C20.3724 9.22923 20.2747 9.17902 20.2258 9.17902C20.1281 9.17902 20.0304 9.17902 19.9327 9.22923C19.835 9.27944 19.7861 9.32964 19.6884 9.37985C19.6395 9.43006 19.5907 9.53048 19.5418 9.6309C19.493 9.73132 19.493 9.93216 19.493 10.0326Z" fill="#BBBBBB"/>
<path d="M23.1571 8.97803V9.17886H22.0823V9.88179H22.9617V10.0826H22.0823V10.9362H23.1571V11.137H21.5938V8.97803H23.1571Z" fill="#BBBBBB"/>
</g>
<defs>
<clipPath id="clip0_525_2009">
<rect width="32" height="12" fill="white" transform="translate(0 0.191406)"/>
</clipPath>
</defs>
</svg>
